<?xml version="1.0" standalone="no"?>
<!DOCTYPE svg PUBLIC "-//W3C//DTD SVG 20010904//EN"
 "http://www.w3.org/TR/2001/REC-SVG-20010904/DTD/svg10.dtd">
<svg version="1.0" xmlns="http://www.w3.org/2000/svg"
 width="800.000000pt" height="800.000000pt" viewBox="0 0 800.000000 800.000000"
 preserveAspectRatio="xMidYMid meet">
<metadata>
Created by potrace 1.14, written by Peter Selinger 2001-2017
</metadata>
<g transform="translate(0.000000,800.000000) scale(0.100000,-0.100000)"
fill="#000000" stroke="none">
<path d="M0 7009 l0 -974 27 -12 c22 -11 29 -10 45 4 22 20 30 13 53 -49 19
-51 36 -63 66 -48 13 7 19 7 19 0 0 -16 60 -12 66 5 4 8 15 15 25 15 10 0 19
6 19 13 0 8 9 22 20 32 22 20 21 39 -2 113 -9 30 -13 33 -39 27 -23 -5 -29 -3
-29 10 0 11 5 15 15 11 21 -8 19 19 -3 52 -42 61 -81 132 -72 132 4 0 22 -11
38 -25 17 -14 34 -25 40 -25 5 0 28 -18 51 -40 22 -22 45 -40 49 -40 12 0 52
-83 52 -107 0 -10 5 -24 10 -29 7 -7 8 -30 2 -69 -8 -52 -8 -58 9 -62 10 -3
17 -9 14 -13 -7 -11 15 -70 26 -70 5 0 9 -9 9 -19 0 -32 11 -50 26 -44 17 6
18 -1 4 -27 -7 -13 -7 -21 0 -25 6 -4 8 -10 5 -15 -3 -5 1 -25 9 -45 13 -31
19 -35 38 -29 21 6 22 5 8 -11 -12 -15 -12 -18 3 -26 9 -6 17 -17 17 -24 0 -8
4 -15 8 -15 5 0 19 -46 32 -102 19 -85 23 -129 22 -248 0 -80 -6 -167 -12
-195 -43 -206 -45 -243 -36 -725 0 -42 -41 -245 -56 -277 -6 -12 -15 -20 -21
-16 -13 8 -126 10 -139 2 -5 -3 -42 2 -81 12 -76 20 -124 23 -255 12 l-82 -6
0 -273 c0 -208 3 -274 13 -277 10 -4 10 -6 0 -6 -7 -1 -13 -6 -13 -12 0 -6 7
-9 15 -5 25 9 45 -4 45 -30 0 -23 -10 -28 -47 -27 -10 1 -13 -130 -13 -623 l0
-623 33 13 c41 16 279 14 285 -3 3 -9 7 -9 18 -1 15 13 38 4 28 -11 -3 -6 -37
-7 -82 -4 -63 4 -72 3 -52 -6 14 -6 38 -14 53 -18 37 -8 38 -23 4 -39 -15 -7
-26 -21 -26 -30 1 -15 2 -14 6 1 4 14 11 17 28 13 14 -4 25 -1 28 7 4 7 8 3
12 -10 8 -26 25 -31 25 -8 0 8 5 15 10 15 6 0 10 -21 11 -47 0 -27 2 -63 5
-80 2 -18 -1 -33 -6 -33 -6 0 -10 26 -11 58 -1 43 -3 51 -9 32 -5 -16 -8 -19
-9 -8 -1 9 -5 19 -11 23 -5 3 -8 -10 -6 -32 2 -20 9 -39 15 -41 6 -2 11 -8 11
-13 0 -6 -4 -8 -9 -4 -5 3 -15 -1 -23 -8 -7 -8 -20 -17 -28 -20 -8 -4 0 -4 18
-1 38 7 40 0 10 -28 -13 -11 -17 -17 -11 -13 7 3 13 1 13 -4 0 -6 8 -11 18
-12 10 0 12 -3 4 -6 -6 -2 -12 -10 -12 -16 0 -5 3 -7 7 -4 3 4 12 2 20 -4 10
-9 13 -8 13 2 0 10 2 11 13 0 10 -10 9 -15 -5 -25 -20 -14 -24 -36 -8 -36 19
0 10 -16 -20 -33 -27 -16 -30 -23 -30 -68 0 -50 -11 -62 -29 -31 -10 16 -10
16 -11 0 0 -9 8 -22 18 -28 12 -8 13 -13 4 -16 -6 -3 -12 -12 -12 -19 0 -8 -9
-19 -21 -26 -16 -8 -20 -17 -15 -37 14 -58 15 -57 -54 -59 -101 -2 -98 -2 -75
-19 20 -15 20 -15 -3 -34 -12 -10 -22 -24 -22 -32 -1 -8 -8 -5 -19 9 -10 12
-31 23 -47 26 l-29 4 32 2 c39 1 49 14 27 35 -8 9 -12 16 -8 16 3 0 1 7 -6 15
-10 12 -9 15 6 16 16 0 16 2 -3 9 -23 9 -32 30 -13 30 6 0 10 5 10 10 0 6 -9
10 -19 10 -27 0 -35 17 -14 28 15 9 16 13 3 39 -23 46 -21 89 6 103 12 7 30
10 39 7 12 -5 14 -3 6 12 -6 10 -7 21 -4 25 3 3 -8 9 -25 12 -18 4 -32 10 -32
15 0 5 -4 9 -10 9 -15 0 -13 -187 3 -193 9 -4 9 -6 0 -6 -10 -1 -13 -165 -13
-783 l0 -783 3897 2 c2144 1 3944 2 4001 2 l102 1 0 808 0 807 -22 1 c-13 0
-38 4 -55 8 -29 7 -33 5 -33 -13 0 -27 -30 -28 -37 -1 -3 11 -11 20 -18 20
-13 0 -15 57 -2 77 4 6 4 18 1 27 -5 14 -2 15 22 5 16 -5 36 -16 44 -23 8 -8
34 -16 58 -19 l42 -5 0 928 c0 1008 4 946 -56 954 -16 2 -36 6 -44 9 -8 3 -42
10 -75 16 -33 6 -61 16 -63 21 -2 6 -28 10 -58 10 -30 0 -54 4 -54 8 0 13 -57
30 -71 21 -19 -12 -52 -11 -44 1 7 11 0 12 -72 10 -80 -2 -125 17 -191 79 -32
31 -71 63 -87 71 -17 8 -33 19 -37 25 -5 6 -15 6 -28 -3 -22 -14 -32 -10 -67
21 -30 27 -29 45 3 45 20 0 26 -7 31 -30 4 -21 9 -26 16 -19 6 6 21 11 33 11
13 0 24 8 27 20 6 24 22 26 31 5 3 -8 1 -15 -5 -15 -6 0 -7 -5 -4 -10 4 -7 17
-4 36 7 49 29 53 39 22 56 -67 34 -93 53 -99 70 -5 15 -12 18 -39 13 -18 -4
-36 -3 -39 3 -6 9 -88 7 -123 -4 -12 -4 -24 -13 -26 -19 -3 -7 -19 -13 -36
-14 -37 -1 -49 25 -31 69 7 16 10 42 8 58 -3 19 0 32 9 35 20 8 15 37 -7 43
-21 6 -26 18 -11 27 5 3 11 17 13 30 4 18 1 23 -10 19 -8 -3 -18 0 -23 8 -8
12 -11 12 -19 -1 -6 -8 -9 -25 -7 -37 2 -12 0 -21 -5 -20 -10 2 -23 -16 -32
-45 -4 -14 -9 -15 -35 -5 -25 9 -38 7 -88 -15 -37 -17 -63 -36 -71 -53 -8 -14
-20 -29 -28 -32 -8 -3 -14 -16 -14 -30 0 -16 -7 -27 -20 -30 -26 -7 -26 -23
-1 -23 32 0 35 -19 6 -45 -14 -14 -25 -33 -23 -42 2 -12 -2 -16 -12 -13 -8 2
-66 4 -127 5 -62 0 -113 4 -113 8 0 5 -9 5 -20 2 -11 -4 -20 -2 -20 4 0 7 -22
11 -54 11 -47 0 -56 -3 -61 -21 l-7 -21 -19 21 c-23 25 -74 28 -95 6 -16 -16
-54 -21 -54 -7 0 4 5 13 12 20 9 9 7 12 -10 12 -13 0 -25 -6 -28 -14 -4 -11
-12 -13 -29 -6 -15 6 -27 6 -30 -1 -4 -5 -11 -7 -16 -3 -17 10 -123 12 -136 2
-7 -5 -18 -6 -25 -2 -7 4 -24 9 -38 10 -14 2 -35 6 -46 8 -13 4 -30 -2 -44
-14 -14 -12 -31 -18 -42 -14 -10 3 -18 1 -18 -5 0 -6 7 -11 15 -11 26 0 42
-58 30 -107 -6 -24 -16 -48 -23 -55 -7 -7 -12 -18 -12 -25 0 -17 -48 -63 -66
-63 -18 0 -54 -58 -47 -76 3 -9 -3 -14 -18 -14 -13 0 -31 -4 -39 -10 -9 -5
-19 -5 -26 1 -8 6 -24 3 -48 -12 -22 -13 -43 -18 -54 -14 -24 10 -72 14 -72 6
0 -4 -26 -8 -57 -10 -32 -1 -114 -4 -183 -7 -78 -3 -155 -1 -205 7 -44 7 -161
13 -260 14 -178 1 -197 3 -265 24 -19 6 -65 11 -102 11 -38 0 -68 3 -68 8 0 8
-54 29 -110 42 -19 4 -32 8 -29 9 3 0 -17 24 -44 52 -54 55 -66 54 -71 -8 -2
-26 -21 -17 -21 10 -1 15 -9 35 -18 44 -16 16 -18 16 -32 -2 -8 -11 -15 -25
-15 -32 0 -6 -8 -14 -17 -17 -10 -3 -6 -4 9 -2 16 2 33 -3 40 -11 10 -12 7
-13 -17 -7 -21 5 -26 4 -23 -7 3 -8 13 -13 23 -11 10 2 14 -1 10 -7 -3 -6 -15
-11 -27 -11 -16 0 -19 -5 -15 -21 3 -12 3 -18 0 -15 -4 3 -12 1 -18 -4 -7 -6
-42 -11 -79 -11 -55 -1 -66 -4 -64 -17 4 -21 -49 -32 -163 -35 -48 -1 -85 -5
-82 -9 2 -5 -2 -8 -10 -8 -7 0 -19 -11 -25 -25 -16 -34 -16 -35 11 -36 21 -1
21 -1 -3 -9 -14 -5 -42 -11 -63 -15 -21 -3 -37 -11 -36 -18 4 -21 -35 -77 -56
-79 -11 -1 -28 -2 -37 -2 -10 -1 -23 -7 -30 -14 -10 -10 -10 -15 2 -22 12 -8
9 -10 -11 -10 -28 0 -47 -25 -26 -34 8 -3 7 -9 -5 -19 -10 -8 -18 -20 -18 -28
0 -12 -2 -12 -9 0 -8 12 -12 12 -24 3 -8 -7 -20 -11 -27 -10 -7 2 -14 -8 -16
-22 -3 -13 -8 -27 -12 -30 -11 -8 -52 -68 -52 -76 0 -4 -16 -21 -35 -39 -25
-24 -31 -35 -20 -39 10 -4 12 -12 5 -35 -7 -24 -5 -31 8 -34 10 -2 7 -3 -5 -2
-13 1 -28 -4 -34 -11 -6 -8 -18 -14 -25 -14 -8 0 -14 -7 -14 -15 0 -21 -27
-30 -45 -15 -10 9 -15 9 -15 1 0 -6 5 -11 12 -11 17 0 -1 -15 -20 -16 -10 -1
-25 -2 -35 -3 -10 0 -22 -13 -27 -27 -6 -14 -15 -22 -20 -19 -6 3 -13 -1 -16
-9 -3 -8 -28 -25 -55 -37 -59 -27 -63 -42 -10 -33 24 4 41 2 45 -5 5 -7 -2
-11 -19 -11 -14 0 -34 -6 -46 -12 -17 -11 -23 -10 -40 12 -20 24 -21 24 -16 3
3 -13 1 -23 -5 -23 -5 0 -6 -5 -3 -10 3 -6 -1 -10 -9 -10 -9 0 -16 -6 -16 -14
0 -7 -7 -19 -15 -26 -12 -10 -15 -9 -16 6 -1 11 -1 22 0 26 0 5 -6 8 -15 8 -8
0 -12 5 -9 10 3 6 -3 10 -14 10 -11 0 -23 -4 -26 -10 -3 -5 0 -10 8 -10 21 0
29 -27 11 -34 -26 -10 -45 -7 -61 9 -15 15 -33 12 -33 -5 0 -5 7 -7 16 -3 9 3
15 2 13 -3 -11 -25 -95 -159 -101 -162 -13 -6 -9 -50 5 -55 8 -4 9 -8 1 -14
-19 -14 -25 -87 -10 -109 12 -16 12 -20 -6 -32 -18 -13 -18 -16 -4 -38 20 -30
20 -34 -1 -34 -14 0 -15 -2 -4 -9 10 -7 11 -13 2 -30 -7 -11 -16 -21 -21 -21
-6 0 -10 -7 -10 -15 0 -9 7 -15 17 -13 23 4 29 -28 9 -48 -9 -8 -14 -20 -11
-25 4 -5 -3 -9 -15 -9 -12 0 -24 9 -30 24 -5 13 -14 27 -20 31 -24 15 -48 84
-54 160 -11 125 38 335 78 335 8 0 16 13 18 30 3 23 0 31 -14 36 -27 8 -79
-14 -104 -45 l-22 -25 0 27 c0 35 31 57 80 57 37 0 51 13 26 24 -9 4 -8 5 2 5
38 -3 49 2 44 16 -4 8 -1 15 5 15 15 0 14 57 -1 62 -10 4 -36 -3 -118 -30 -8
-3 -21 -4 -28 -3 -10 2 -11 -2 -3 -18 15 -28 14 -48 -5 -55 -8 -3 -13 -2 -10
2 2 4 1 14 -4 21 -12 21 -32 2 -26 -25 7 -28 -2 -31 -19 -7 -15 20 -9 43 11
43 21 0 17 20 -3 21 -14 0 -15 2 -3 6 8 4 21 12 28 20 7 7 20 13 28 13 8 0 14
7 14 15 0 10 10 15 28 16 l27 0 -25 11 c-35 15 -7 23 32 9 35 -12 146 -15 134
-4 -4 5 -18 8 -29 8 -13 0 -22 6 -22 15 0 8 -6 15 -14 15 -8 0 -16 6 -18 13
-3 6 0 12 6 12 6 0 11 8 11 17 0 13 -3 14 -12 5 -16 -16 -28 -15 -28 3 0 8 5
15 10 15 6 0 10 5 10 10 0 6 -17 10 -37 10 -34 0 -35 1 -18 14 19 14 19 15
-14 44 -29 25 -33 34 -29 63 4 24 0 37 -11 46 -15 11 -14 12 2 13 19 0 23 26
7 50 -8 12 -13 13 -30 2 -17 -11 -25 -9 -51 10 -16 12 -25 24 -20 26 23 8 9
20 -28 25 -22 3 -50 14 -62 26 -13 12 -26 21 -30 21 -4 0 -10 9 -14 20 -6 19
-8 19 -31 3 -21 -13 -27 -14 -34 -3 -11 17 -106 7 -130 -15 -9 -8 -22 -15 -28
-15 -7 0 -12 -4 -12 -10 0 -5 7 -10 15 -10 8 0 15 -5 15 -10 0 -15 -40 7 -47
26 -3 8 -17 14 -32 14 -14 0 -37 7 -51 15 -14 8 -35 19 -47 24 -11 5 -34 26
-50 45 -15 20 -36 36 -45 36 -10 0 -33 14 -53 31 -31 27 -35 36 -30 61 5 20 2
35 -8 46 -20 23 -31 180 -14 200 10 13 8 14 -12 7 -22 -7 -23 -5 -17 16 4 13
8 33 10 44 2 11 5 25 6 30 1 6 1 12 0 15 -1 3 -4 16 -6 30 -10 81 -13 103 -18
108 -3 3 -1 11 4 17 17 21 28 174 14 197 -3 4 2 5 11 2 11 -5 14 -2 9 12 -10
33 -28 68 -46 93 -10 13 -18 35 -18 50 0 14 -4 33 -10 41 -7 12 -12 11 -30 -5
-31 -28 -40 -8 -40 90 -1 44 -3 152 -5 239 -2 104 0 167 7 180 7 12 10 58 9
106 -2 47 -3 92 -2 100 0 8 2 67 4 131 2 63 9 125 16 136 6 12 11 39 11 59 0
61 135 314 196 369 7 5 15 23 18 38 4 16 22 44 41 63 19 19 35 39 35 44 0 6 3
10 8 10 9 0 66 57 95 95 12 16 30 51 39 78 10 28 25 61 33 74 l17 25 30 -41
31 -40 41 24 c56 32 112 42 134 22 18 -15 59 -25 152 -33 30 -3 59 -10 65 -15
5 -6 4 -9 -4 -9 -7 0 -9 -5 -5 -12 4 -6 -3 -4 -17 5 -31 22 -42 21 -29 -2 13
-26 13 -31 -5 -31 -8 0 -15 -5 -15 -12 0 -6 -6 -4 -13 6 -12 16 -19 17 -53 8
-28 -7 -33 -11 -16 -12 12 -1 27 -4 32 -5 6 -1 16 -3 23 -4 8 -1 8 -4 -3 -10
-8 -6 -17 -8 -21 -5 -4 2 -10 0 -14 -6 -3 -5 -1 -10 4 -10 6 0 11 -8 11 -17 0
-14 -3 -14 -22 4 -23 21 -39 27 -68 24 -16 -1 -40 -44 -40 -73 0 -10 -6 -18
-14 -18 -23 0 -30 -20 -28 -83 1 -43 7 -64 20 -76 9 -9 23 -28 30 -43 22 -52
43 -37 122 83 28 42 58 80 68 84 9 5 46 7 82 6 68 -2 140 17 172 46 10 9 18
30 18 49 0 20 7 38 18 46 10 7 25 29 33 48 17 41 19 187 3 198 -24 16 -43 116
-24 127 14 9 12 93 -4 136 -19 53 -61 104 -117 140 l-49 31 36 29 c20 16 45
29 55 29 11 0 19 6 19 13 0 6 20 33 45 60 51 55 85 63 85 19 0 -15 -5 -33 -12
-40 -8 -8 -8 -15 2 -27 13 -16 9 -18 -28 -15 -20 1 -23 -2 -17 -19 4 -13 2
-21 -5 -21 -6 0 -10 -7 -8 -16 2 -8 6 -15 11 -15 7 1 30 -17 71 -57 l24 -23
52 26 c29 15 78 53 110 86 50 51 63 59 92 57 18 -1 46 -12 61 -25 16 -13 41
-26 55 -30 33 -7 93 -39 101 -52 4 -5 18 -12 32 -16 22 -5 28 -2 38 24 8 18
10 39 5 53 -13 36 -11 118 3 118 6 0 13 6 16 13 3 9 8 9 21 -2 9 -8 15 -20 12
-27 -3 -7 8 -27 24 -43 37 -36 39 -55 6 -47 -22 5 -24 2 -29 -42 -4 -26 -9
-59 -13 -74 -5 -22 -3 -28 10 -28 20 0 20 -16 2 -51 -13 -25 -12 -28 16 -49
41 -30 108 -31 148 -1 30 21 30 21 30 1 0 -22 16 -28 22 -8 2 6 9 8 16 4 9 -5
8 -13 -3 -30 -15 -23 -15 -23 10 -18 14 2 30 13 36 23 5 11 16 19 23 19 8 0
20 10 28 21 12 19 17 20 34 9 14 -8 34 -10 58 -6 41 8 58 33 33 48 -9 5 -16
19 -16 31 0 12 -1 30 -3 41 -4 27 27 44 52 28 18 -11 21 -10 30 12 5 13 14 27
20 31 6 4 8 20 4 41 -5 28 -4 33 9 28 29 -11 46 -51 53 -127 4 -41 9 -80 13
-85 9 -16 61 -26 61 -13 0 6 9 11 19 11 14 0 21 9 26 33 14 66 56 101 68 56 5
-18 11 -20 44 -16 20 3 39 10 41 16 2 5 10 7 18 4 8 -3 14 0 14 6 0 6 -7 11
-16 11 -8 0 -13 4 -10 9 3 5 -1 14 -9 21 -8 7 -15 21 -15 31 0 10 -4 20 -9 23
-4 3 -7 22 -5 43 6 75 -12 110 -103 201 -95 95 -96 103 -10 117 31 6 43 4 52
-9 7 -9 18 -16 25 -16 7 0 10 -7 6 -15 -3 -10 1 -18 11 -22 9 -4 25 -15 35
-25 10 -10 27 -18 38 -18 30 0 58 -21 53 -40 -3 -10 5 -20 21 -28 14 -6 26 -8
26 -3 0 5 11 12 25 15 14 4 25 12 25 19 0 7 9 18 20 24 16 10 17 17 10 40 -6
16 -9 42 -7 58 1 19 -2 29 -10 28 -7 -2 -10 4 -7 12 9 24 32 18 46 -12 9 -19
21 -28 36 -27 12 0 22 -3 22 -8 0 -5 10 -6 22 -2 20 6 21 5 9 -10 -18 -22 5
-22 30 0 16 14 19 13 34 -20 10 -20 20 -34 24 -32 3 2 7 -23 7 -55 1 -33 7
-66 14 -74 14 -17 68 -45 87 -45 7 0 13 -4 13 -10 0 -22 2 -25 21 -32 10 -4
19 -13 19 -21 0 -9 9 -12 30 -9 18 3 30 0 30 -7 0 -6 -5 -11 -11 -11 -5 0 -8
-4 -4 -10 3 -5 11 -7 18 -5 28 10 67 13 67 5 0 -4 -12 -11 -27 -15 l-28 -8 35
-8 c38 -8 66 5 52 25 -11 14 -10 56 2 74 5 8 2 20 -8 31 -9 10 -16 22 -16 27
0 5 -9 15 -21 22 -13 8 -18 19 -15 29 4 8 2 21 -4 28 -16 20 3 26 40 14 22 -8
35 -8 42 -1 7 7 17 8 28 2 12 -6 23 -5 36 5 11 8 29 15 41 15 21 0 22 4 18 47
-5 45 -15 73 -15 40 0 -10 -5 -14 -15 -11 -8 4 -15 13 -15 21 0 8 5 11 10 8 6
-3 10 -1 10 4 0 6 -4 11 -9 11 -4 0 -14 21 -21 48 -16 57 -14 54 -33 46 -13
-5 -14 -10 -6 -27 9 -16 8 -23 -7 -34 -25 -18 -55 -17 -48 2 4 8 11 15 18 15
6 0 4 5 -4 10 -13 8 -12 10 3 10 9 0 17 6 17 13 0 16 42 57 57 57 7 0 15 9 18
20 5 15 12 19 26 15 22 -7 43 10 53 43 12 35 29 26 24 -13 -3 -30 -1 -35 17
-35 11 0 31 -8 45 -17 17 -12 25 -13 28 -5 4 13 62 17 62 4 0 -4 -5 -13 -12
-20 -9 -9 -8 -12 6 -12 15 0 16 -3 7 -14 -14 -17 -1 -28 33 -30 14 -1 22 -9
25 -26 3 -27 60 -92 73 -84 5 3 6 9 3 13 -2 5 18 15 44 24 66 21 99 51 93 83
-3 15 -13 26 -28 30 -19 5 -22 9 -14 19 8 9 7 14 -2 18 -7 2 -9 8 -5 13 5 5
13 1 18 -9 6 -9 17 -17 26 -17 12 0 13 3 4 14 -6 7 -11 27 -11 42 0 81 -3 87
-97 175 -50 46 -121 102 -153 118 -14 6 -36 21 -49 32 -20 16 -22 22 -11 32
10 9 13 9 17 0 3 -7 12 -13 21 -13 15 0 15 2 2 10 -11 7 -6 10 20 10 31 0 42
-7 83 -56 26 -31 47 -59 47 -63 0 -10 51 -33 58 -26 3 2 11 0 19 -6 9 -9 17
-8 27 0 17 15 64 5 91 -19 11 -10 30 -23 43 -29 12 -6 22 -18 22 -26 0 -8 7
-15 15 -15 8 0 15 -6 15 -13 0 -8 9 -22 20 -32 18 -16 20 -16 55 5 29 18 35
27 35 57 0 19 13 73 30 120 19 52 28 94 24 109 -4 15 -2 24 6 24 17 0 4 62
-27 127 -13 29 -22 57 -19 62 3 5 -7 20 -23 34 l-29 24 -1169 -3 c-1585 -5
-1662 -5 -1628 -14 27 -7 25 -8 -17 -9 -27 0 -48 4 -48 9 0 15 -27 12 -33 -4
-3 -7 0 -19 6 -25 8 -8 8 -11 -1 -11 -7 0 -12 4 -12 8 0 5 -16 16 -36 25 -32
16 -132 18 -1200 23 l-1164 7 0 -974z m2708 939 c-6 -18 -28 -21 -28 -4 0 9 7
16 16 16 9 0 14 -5 12 -12z m146 -3 c8 -8 28 -15 45 -15 26 0 30 -3 29 -24 -1
-14 -6 -22 -10 -20 -4 3 -18 -2 -29 -10 -21 -14 -19 -15 27 -18 47 -4 48 -4
17 -12 -18 -5 -33 -16 -36 -27 -6 -23 18 -26 27 -4 3 8 13 15 22 15 9 0 27 9
42 20 30 24 44 15 47 -29 2 -25 -1 -31 -16 -31 -11 0 -19 -5 -19 -11 0 -8 -5
-8 -15 1 -12 10 -15 10 -15 -2 0 -23 8 -26 45 -18 19 4 37 5 40 2 3 -4 16 -7
27 -7 12 0 23 -6 26 -14 3 -10 -2 -13 -22 -9 -21 4 -26 2 -25 -11 4 -46 7 -45
-116 -27 -5 0 -9 -6 -7 -14 1 -10 -3 -9 -15 5 -13 15 -28 20 -55 18 -31 -3
-38 0 -38 14 -1 16 -2 16 -15 -1 -8 -11 -15 -14 -15 -8 0 7 -12 13 -27 13 -17
1 -21 3 -10 6 36 9 13 27 -50 39 -19 4 -21 0 -20 -32 1 -22 -3 -39 -10 -41 -9
-3 -13 7 -13 31 0 39 -13 46 -46 21 -27 -20 -43 -19 -37 4 5 19 22 31 51 37 8
1 20 11 27 20 11 16 15 16 29 5 10 -9 16 -9 16 -2 0 6 -15 18 -32 27 -44 22
-45 23 -28 35 11 8 12 12 3 16 -7 2 -13 11 -13 19 0 16 26 19 36 3 3 -6 15 -9
25 -6 11 3 19 1 19 -4 0 -5 -5 -9 -11 -9 -5 0 -7 -5 -4 -10 9 -14 45 7 45 25
0 18 12 19 27 4 16 -16 36 -1 30 22 -4 16 4 26 25 28 4 1 13 -6 22 -14z m1322
-31 c-3 -8 -1 -25 3 -37 5 -13 6 -29 1 -37 -15 -25 -25 -1 -23 57 2 74 2 71
14 50 6 -10 8 -25 5 -33z m-1551 27 c-6 -11 -45 -10 -45 1 0 4 12 8 26 8 14 0
23 -4 19 -9z m-853 -26 c7 -34 -2 -39 -23 -13 -24 27 -24 38 0 38 12 0 20 -9
23 -25z m739 18 c0 -5 2 -15 4 -25 3 -18 -26 -30 -45 -18 -9 6 -9 12 1 29 13
20 38 29 40 14z m2049 -18 c0 -8 -7 -15 -16 -15 -14 0 -14 3 -4 15 7 8 14 15
16 15 2 0 4 -7 4 -15z m30 -6 c0 -11 -4 -17 -10 -14 -5 3 -10 13 -10 21 0 8 5
14 10 14 6 0 10 -9 10 -21z m-2249 -29 c19 0 29 -5 29 -15 0 -9 7 -15 16 -13
10 2 19 -4 21 -12 4 -13 3 -13 -6 0 -6 9 -11 10 -11 3 0 -7 -17 -11 -45 -10
-24 0 -47 -2 -50 -5 -3 -3 -17 -1 -30 6 -31 14 -34 55 -5 63 11 3 20 10 20 16
0 6 7 1 16 -11 10 -14 25 -22 45 -22z m24 31 c7 -12 -12 -24 -25 -16 -11 7 -4
25 10 25 5 0 11 -4 15 -9z m1745 -12 c0 -6 -4 -7 -10 -4 -5 3 -10 11 -10 16 0
6 5 7 10 4 6 -3 10 -11 10 -16z m220 -14 c0 -5 -5 -3 -10 5 -5 8 -10 20 -10
25 0 6 5 3 10 -5 5 -8 10 -19 10 -25z m-1027 5 c-3 -11 -9 -20 -14 -20 -11 0
-11 3 -3 24 9 23 23 20 17 -4z m487 0 c0 -4 -12 -5 -26 -2 -17 3 -22 7 -13 12
13 9 39 2 39 -10z m-1233 4 c-3 -3 -12 -4 -19 -1 -8 3 -5 6 6 6 11 1 17 -2 13
-5z m1853 -4 c0 -5 -2 -10 -4 -10 -3 0 -8 5 -11 10 -3 6 -1 10 4 10 6 0 11 -4
11 -10z m-570 -14 c0 -8 8 -17 18 -20 10 -3 7 -4 -8 -3 -24 2 -44 37 -21 37 6
0 11 -6 11 -14z m540 -12 c0 -8 -7 -14 -15 -14 -15 0 -21 21 -9 33 10 9 24 -2
24 -19z m91 13 c-1 -12 -15 -9 -19 4 -3 6 1 10 8 8 6 -3 11 -8 11 -12z m785
-24 c-10 -10 -19 5 -10 18 6 11 8 11 12 0 2 -7 1 -15 -2 -18z m-2047 10 c-1
-5 0 -19 1 -33 2 -16 4 -19 7 -8 6 23 33 32 33 10 1 -16 1 -16 10 0 6 10 18
14 30 11 23 -6 24 -7 8 -33 -16 -24 -2 -39 15 -16 11 16 15 16 50 1 42 -17 45
-40 6 -40 -13 0 -29 -3 -35 -7 -19 -12 -83 3 -87 21 -3 11 -6 8 -11 -11 -9
-29 -32 -43 -50 -29 -8 6 -11 2 -11 -14 0 -18 3 -21 17 -14 22 12 48 11 48 -1
0 -5 -9 -10 -21 -10 -11 0 -27 -7 -35 -15 -21 -20 -31 -19 -39 6 l-7 21 -15
-21 c-8 -12 -21 -21 -29 -21 -21 0 -17 28 6 40 12 7 20 21 20 38 1 15 8 44 18
64 14 30 21 35 35 27 14 -8 17 -6 17 16 0 14 5 25 10 25 6 0 9 -3 9 -7z m262
-24 c28 -27 35 -30 52 -20 27 17 40 1 40 -48 0 -43 11 -55 20 -22 2 11 0 24
-6 30 -7 7 -5 12 7 17 24 9 28 1 18 -37 -5 -22 -19 -40 -41 -53 -32 -18 -32
-18 -38 3 -3 11 -12 21 -19 21 -21 0 -17 21 6 27 11 3 20 9 20 13 0 9 -86 4
-101 -5 -14 -9 -21 15 -9 30 10 12 9 15 -8 15 -11 0 -23 6 -25 13 -4 9 -8 8
-16 -3 -9 -13 -11 -13 -11 3 0 10 8 17 19 17 10 0 21 7 25 15 9 24 32 18 67
-16z m329 5 c0 -8 -9 -14 -20 -14 -22 0 -28 26 -7 33 16 6 27 -1 27 -19z
m1352 4 c-5 -5 -21 -6 -37 -2 -33 8 -15 23 21 16 16 -3 22 -8 16 -14z m-3751
2 c5 0 9 -9 9 -20 0 -24 -8 -25 -32 -3 -22 20 -24 37 -2 29 9 -3 20 -6 25 -6z
m2330 -7 c10 -11 10 -14 2 -9 -9 5 -13 0 -13 -13 0 -12 6 -20 13 -18 8 1 11
-8 9 -29 -2 -21 2 -33 12 -37 9 -4 15 -3 15 1 -4 23 4 32 25 32 14 0 28 5 31
10 4 6 10 8 15 5 5 -3 11 -1 14 4 4 5 -2 12 -13 16 -11 3 -22 12 -25 20 -5 13
-1 13 24 0 23 -12 35 -13 51 -4 26 14 34 6 20 -19 -14 -27 -14 -32 4 -32 9 0
12 -6 9 -15 -5 -11 -2 -13 11 -9 16 7 16 6 0 -14 -16 -17 -26 -20 -66 -15 -39
5 -50 3 -55 -11 -9 -24 -51 -20 -57 6 -6 21 -7 21 -26 4 -11 -10 -27 -16 -34
-13 -8 3 -19 1 -25 -5 -21 -21 -38 -2 -34 41 3 29 9 42 24 47 18 5 18 7 2 18
-15 12 -15 13 0 19 9 4 16 2 16 -3 0 -6 5 -10 10 -10 6 0 10 8 10 18 0 16 8
32 15 32 2 0 9 -8 16 -17z m-2396 -13 c10 -11 14 -20 9 -20 -12 1 -44 25 -44
34 0 12 17 6 35 -14z m1160 0 c-8 -12 -44 -19 -51 -9 -10 16 5 26 31 22 13 -3
23 -9 20 -13z m120 10 c3 -5 1 -10 -5 -10 -6 0 -21 -11 -34 -25 -26 -28 -46
-32 -46 -10 0 8 7 15 15 15 18 0 20 16 3 24 -7 3 -1 3 15 0 16 -4 27 -2 27 5
0 14 17 14 25 1z m1800 0 c3 -5 -1 -10 -9 -10 -9 0 -16 5 -16 10 0 6 4 10 9
10 6 0 13 -4 16 -10z m-2885 -73 c0 -4 5 -5 10 -2 6 3 10 21 10 38 l1 32 12
-25 c13 -26 60 -39 72 -20 5 8 11 7 21 -1 22 -18 17 -24 -23 -24 -33 0 -37 -4
-48 -35 -8 -25 -19 -36 -35 -38 -14 -2 -30 -11 -36 -20 -12 -16 -13 -16 -19 0
-9 22 -70 35 -89 18 -11 -8 -20 -9 -36 0 -27 15 -41 4 -34 -26 4 -14 2 -24 -5
-24 -6 0 -11 4 -11 9 0 5 -12 14 -27 19 -25 9 -26 10 -5 11 12 1 22 6 22 11 0
6 7 10 15 10 9 0 15 9 15 25 0 27 9 32 28 13 9 -9 12 -8 12 4 0 9 -4 20 -10
23 -18 11 -10 25 14 25 13 0 26 7 30 15 3 8 16 15 30 15 14 0 28 5 31 11 7 10
55 -46 55 -64z m2080 64 c0 -6 -4 -13 -10 -16 -5 -3 -10 1 -10 9 0 9 5 16 10
16 6 0 10 -4 10 -9z m953 -21 c6 -22 -18 -60 -38 -60 -13 0 -14 58 0 79 8 15
32 3 38 -19z m-2145 -16 c17 -36 -6 -42 -34 -8 -30 37 -30 42 0 37 13 -3 29
-16 34 -29z m1654 24 c-5 -7 -12 -24 -14 -37 -4 -35 -20 -35 -40 -2 -16 29
-16 30 10 40 40 14 57 14 44 -1z m94 6 c20 -5 21 -8 7 -35 -8 -16 -12 -33 -8
-39 4 -6 -5 -8 -22 -6 -15 2 -22 1 -15 -1 14 -5 17 -33 3 -33 -6 0 -13 5 -16
10 -9 15 -42 12 -48 -4 -7 -16 -59 -16 -65 1 -5 18 28 29 38 13 6 -9 11 -7 19
9 7 12 16 19 22 16 5 -4 9 1 9 9 0 19 26 22 32 4 3 -7 11 -9 24 -4 18 8 18 8
-3 17 -23 9 -32 29 -12 29 5 0 7 5 4 10 -7 11 1 12 31 4z m219 -24 c3 -11 -1
-30 -10 -44 -9 -14 -14 -30 -10 -36 3 -5 0 -10 -8 -10 -19 0 -27 32 -20 76 6
38 37 48 48 14z m-3095 -4 c0 -3 -4 -8 -10 -11 -5 -3 -10 -1 -10 4 0 6 5 11
10 11 6 0 10 -2 10 -4z m3200 -17 c0 -5 -4 -9 -10 -9 -5 0 -10 7 -10 16 0 8 5
12 10 9 6 -3 10 -10 10 -16z m495 -9 c0 -7 -6 -15 -12 -17 -8 -3 -13 4 -13 17
0 13 5 20 13 18 6 -3 12 -11 12 -18z m-2705 0 c0 -5 -4 -10 -10 -10 -5 0 -10
5 -10 10 0 6 5 10 10 10 6 0 10 -4 10 -10z m1980 -4 c0 -16 -18 -31 -27 -22
-8 8 5 36 17 36 5 0 10 -6 10 -14z m-260 -6 c0 -5 -5 -10 -11 -10 -5 0 -7 5
-4 10 3 6 8 10 11 10 2 0 4 -4 4 -10z m-530 -16 c0 -8 -4 -12 -10 -9 -5 3 -10
10 -10 16 0 5 5 9 10 9 6 0 10 -7 10 -16z m-1676 -10 c5 -12 0 -15 -22 -12
-17 2 -26 -2 -24 -10 3 -15 -10 -16 -26 0 -23 23 -17 27 54 37 7 0 15 -6 18
-15z m496 -15 c0 -25 -12 -24 -35 1 -16 18 -20 19 -27 5 -11 -19 -28 -20 -28
-1 0 17 23 23 63 18 18 -3 27 -10 27 -23z m-662 9 c-6 -18 -28 -21 -28 -4 0 9
7 16 16 16 9 0 14 -5 12 -12z m3667 2 c4 -6 -5 -10 -19 -10 -14 0 -26 5 -26
10 0 6 9 10 19 10 11 0 23 -4 26 -10z m-2910 -9 c7 -12 -12 -24 -25 -16 -11 7
-4 25 10 25 5 0 11 -4 15 -9z m2985 -1 c0 -5 -11 -10 -25 -10 -14 0 -25 5 -25
10 0 6 11 10 25 10 14 0 25 -4 25 -10z m-1875 -10 c3 -5 1 -10 -4 -10 -6 0
-11 5 -11 10 0 6 2 10 4 10 3 0 8 -4 11 -10z m-1050 -10 c3 -5 1 -10 -4 -10
-6 0 -11 5 -11 10 0 6 2 10 4 10 3 0 8 -4 11 -10z m185 0 c-20 -13 -40 -13
-40 0 0 6 12 10 28 10 21 0 24 -2 12 -10z m-439 -10 c5 0 9 -7 9 -16 0 -11 -5
-14 -16 -10 -9 3 -20 6 -25 6 -5 0 -9 7 -9 16 0 11 5 14 16 10 9 -3 20 -6 25
-6z m53 -5 c-4 -8 -11 -15 -16 -15 -6 0 -5 6 2 15 7 8 14 15 16 15 2 0 1 -7
-2 -15z m999 -12 c-7 -2 -21 -2 -30 0 -10 3 -4 5 12 5 17 0 24 -2 18 -5z
m-183 -12 c0 -17 -19 -23 -50 -16 -43 9 -37 25 10 25 22 0 40 -4 40 -9z
m-1782 -13 c21 -21 13 -26 -23 -15 -19 6 -35 14 -35 19 0 12 44 10 58 -4z
m134 -3 c0 -5 -5 -11 -11 -13 -6 -2 -11 4 -11 13 0 9 5 15 11 13 6 -2 11 -8
11 -13z m1475 -7 c-3 -8 -6 -5 -6 6 -1 11 2 17 5 13 3 -3 4 -12 1 -19z m58 3
c3 -5 1 -12 -4 -15 -12 -8 -41 3 -41 15 0 12 37 12 45 0z m350 -51 c3 -5 1
-10 -4 -10 -6 0 -11 5 -11 10 0 6 2 10 4 10 3 0 8 -4 11 -10z m1165 -29 c0 -5
-9 -11 -20 -14 -22 -6 -28 8 -7 16 19 8 27 8 27 -2z m-1050 -28 c0 -11 -5 -13
-17 -8 -10 4 -26 7 -35 7 -20 -1 -24 14 -6 20 23 8 58 -4 58 -19z m430 -3 c0
-5 -7 -10 -15 -10 -8 0 -15 5 -15 10 0 6 7 10 15 10 8 0 15 -4 15 -10z m-330
-46 c0 -2 -9 -4 -21 -4 -11 0 -18 4 -14 10 5 8 35 3 35 -6z m-1253 -38 c-2 -6
-13 -12 -25 -14 -18 -3 -22 2 -22 22 0 24 2 25 25 14 14 -6 24 -16 22 -22z
m-427 -16 c0 -5 -7 -10 -15 -10 -8 0 -15 5 -15 10 0 6 7 10 15 10 8 0 15 -4
15 -10z m440 -53 c0 -13 -60 -77 -72 -77 -13 0 -9 55 5 72 21 27 67 31 67 5z
m2330 13 c0 -5 -4 -10 -10 -10 -5 0 -10 5 -10 10 0 6 5 10 10 10 6 0 10 -4 10
-10z m157 -52 c-3 -8 -6 -5 -6 6 -1 11 2 17 5 13 3 -3 4 -12 1 -19z m-382 -28
c-3 -5 -17 -10 -31 -10 -14 0 -22 4 -19 10 3 6 17 10 31 10 14 0 22 -4 19 -10z
m-3227 -54 l29 -54 -38 2 c-39 2 -84 32 -106 72 -15 28 -8 34 43 34 41 0 43
-2 72 -54z m2312 -27 c3 -3 14 -10 24 -16 17 -9 15 -12 -18 -23 -43 -14 -117
-9 -164 11 -27 11 -36 11 -53 1 -35 -22 -33 -5 5 34 50 51 88 58 151 25 28
-14 52 -29 55 -32z m265 51 c3 -5 -3 -10 -15 -10 -12 0 -18 5 -15 10 3 6 10
10 15 10 5 0 12 -4 15 -10z m-1638 -95 c-12 -9 -17 -27 -17 -66 0 -30 -9 -81
-20 -112 -11 -32 -18 -62 -15 -68 4 -5 -1 -9 -11 -9 -17 0 -59 -32 -131 -100
-23 -22 -46 -40 -51 -40 -5 0 -16 -9 -23 -20 -15 -23 -76 -34 -164 -31 -36 1
-65 -6 -102 -24 -73 -35 -99 -59 -144 -137 -39 -66 -39 -67 -30 -133 9 -58 8
-68 -9 -85 -18 -18 -60 -119 -60 -145 0 -8 -4 -16 -9 -20 -5 -3 -15 -22 -22
-43 -11 -33 -84 -121 -93 -111 -10 12 -15 89 -6 94 6 4 8 10 5 15 -3 5 -1 26
3 48 6 24 6 46 0 56 -7 12 -3 31 12 63 12 26 24 63 27 82 3 20 11 43 18 51 7
8 20 29 29 47 9 17 40 58 70 90 29 32 56 68 60 80 4 11 18 24 31 27 14 4 25
11 25 16 0 6 4 10 9 10 5 0 39 20 76 45 36 24 75 47 86 50 10 4 19 13 19 22 0
8 20 35 44 59 25 24 46 54 48 66 2 13 9 22 17 20 8 -2 30 5 49 14 30 14 41 15
67 4 52 -21 75 -23 93 -7 9 8 26 17 36 18 18 4 20 13 20 90 1 64 5 92 17 105
9 11 19 28 23 39 6 18 9 16 23 -14 16 -31 16 -34 0 -46z m1673 71 c0 -3 -4 -8
-10 -11 -5 -3 -10 -1 -10 4 0 6 5 11 10 11 6 0 10 -2 10 -4z m678 -24 c2 -7
-6 -12 -17 -12 -21 0 -27 11 -14 24 9 9 26 2 31 -12z m-48 -12 c0 -5 -4 -10
-10 -10 -5 0 -10 5 -10 10 0 6 5 10 10 10 6 0 10 -4 10 -10z m-743 -16 c-3 -3
-12 -4 -19 -1 -8 3 -5 6 6 6 11 1 17 -2 13 -5z m-54 -16 c21 4 23 -14 1 -22
-8 -3 -22 0 -30 8 -17 18 -18 30 -1 19 6 -4 20 -6 30 -5z m932 -27 c7 -13 -41
-61 -61 -61 -22 0 -12 23 14 35 12 5 22 15 22 22 0 15 16 17 25 4z m-203 -23
c-7 -7 -12 -8 -12 -2 0 14 12 26 19 19 2 -3 -1 -11 -7 -17z m-3480 -40 c-11
-11 -42 1 -42 16 0 23 13 26 32 9 10 -9 15 -20 10 -25z m2563 22 c4 -6 -5 -10
-20 -10 -15 0 -24 4 -20 10 3 6 12 10 20 10 8 0 17 -4 20 -10z m415 -5 c0 -8
-7 -15 -15 -15 -8 0 -15 7 -15 15 0 8 7 15 15 15 8 0 15 -7 15 -15z m312 -40
c-4 -6 -8 -2 -10 8 -2 9 -8 17 -13 17 -5 0 -9 8 -9 18 0 14 4 12 19 -8 11 -13
17 -29 13 -35z m218 25 c0 -5 -7 -10 -15 -10 -8 0 -15 5 -15 10 0 6 7 10 15
10 8 0 15 -4 15 -10z m-855 -20 c3 -5 1 -10 -4 -10 -6 0 -11 5 -11 10 0 6 2
10 4 10 3 0 8 -4 11 -10z m-1825 -53 c0 -19 -27 -53 -36 -45 -9 10 12 58 26
58 5 0 10 -6 10 -13z m564 -29 c-7 -11 -34 -10 -34 1 0 5 3 17 6 25 6 15 8 15
19 -1 7 -10 11 -21 9 -25z m716 32 c0 -5 -4 -10 -10 -10 -5 0 -10 5 -10 10 0
6 5 10 10 10 6 0 10 -4 10 -10z m-1340 -70 c0 -5 -4 -10 -10 -10 -5 0 -10 5
-10 10 0 6 5 10 10 10 6 0 10 -4 10 -10z m1715 -67 c3 -9 -1 -24 -10 -32 -15
-15 -19 -13 -41 14 -27 33 -30 51 -11 58 16 5 53 -19 62 -40z m-3038 -48 c12
-8 28 -12 36 -9 13 5 15 -5 15 -58 0 -59 8 -111 20 -133 14 -23 7 -46 -20 -70
-27 -24 -29 -25 -53 -9 -14 9 -25 23 -25 32 0 9 -12 26 -27 39 -27 22 -27 22
-5 23 23 0 30 14 12 25 -8 5 -7 11 0 21 7 7 11 35 9 61 -5 97 -1 105 38 78z
m3076 -5 c3 -11 2 -22 -3 -25 -11 -7 -33 22 -25 35 10 16 22 12 28 -10z m962
11 c3 -5 1 -12 -5 -16 -5 -3 -10 1 -10 9 0 18 6 21 15 7z m-3105 -25 c0 -2 -7
-7 -16 -10 -8 -3 -12 -2 -9 4 6 10 25 14 25 6z m140 -14 l22 -18 -30 -44 c-17
-25 -51 -58 -76 -75 -25 -16 -46 -33 -46 -37 0 -4 -22 -33 -49 -66 -27 -32
-58 -77 -70 -100 -20 -40 -22 -41 -49 -30 -15 7 -39 22 -54 34 -27 22 -37 26
-89 38 -24 5 -26 10 -25 53 1 27 7 48 14 51 6 2 12 -1 12 -7 0 -7 17 -3 41 10
25 12 51 18 65 15 12 -3 26 -2 29 4 4 6 13 5 25 -2 13 -9 27 -9 47 -2 23 8 29
16 31 47 2 22 -3 46 -12 59 -9 12 -16 28 -16 34 0 16 31 22 51 11 21 -13 65
-1 87 22 22 25 64 26 92 3z m1814 -31 c3 -5 -8 -11 -24 -13 -29 -4 -37 1 -23
15 9 10 41 9 47 -2z m36 -27 c0 -8 -5 -12 -10 -9 -6 4 -8 11 -5 16 9 14 15 11
15 -7z m462 -1 c20 -18 24 -33 8 -33 -5 0 -10 7 -10 15 0 8 -7 15 -15 15 -8 0
-15 5 -15 10 0 15 11 12 32 -7z m-492 -13 c0 -5 -4 -10 -10 -10 -5 0 -10 5
-10 10 0 6 5 10 10 10 6 0 10 -4 10 -10z m430 -26 c0 -2 -9 -4 -20 -4 -11 0
-20 4 -20 9 0 5 9 7 20 4 11 -3 20 -7 20 -9z m30 6 c0 -5 -2 -10 -4 -10 -3 0
-8 5 -11 10 -3 6 -1 10 4 10 6 0 11 -4 11 -10z m-550 -85 c0 -10 -9 -14 -25
-13 -14 1 -25 8 -25 15 0 7 11 13 25 13 15 0 25 -6 25 -15z m-2685 -150 c14
-13 25 -31 25 -40 0 -8 11 -20 25 -25 22 -8 24 -13 15 -29 -7 -13 -7 -22 0
-26 12 -7 14 -65 3 -65 -12 1 -67 54 -82 81 -8 13 -16 37 -18 53 -1 16 -10 37
-18 46 -8 9 -12 20 -8 23 13 13 34 7 58 -18z m334 -49 c12 -11 26 -13 55 -6
31 7 40 5 54 -11 21 -25 49 -24 57 1 8 25 20 24 70 -5 22 -13 50 -29 63 -34
16 -8 22 -19 22 -42 0 -32 18 -106 30 -124 11 -15 5 -212 -7 -227 -6 -7 -13
-29 -16 -48 -11 -74 -94 -210 -175 -287 -46 -44 -62 -48 -132 -27 -20 6 -68
76 -76 111 -10 43 -37 103 -47 103 -4 0 -5 4 -2 10 3 5 0 29 -8 52 -9 27 -13
64 -10 99 4 43 1 63 -16 94 -12 22 -21 45 -21 51 0 7 -7 14 -15 18 -8 3 -15
17 -15 30 0 16 -8 30 -21 37 -20 10 -20 12 -5 27 15 15 17 15 32 0 15 -15 18
-15 36 2 12 11 31 17 51 15 42 -4 41 -3 28 -19 -9 -11 -7 -15 11 -19 24 -7 42
3 21 10 -15 5 -18 43 -4 43 5 0 11 -5 13 -12 2 -6 10 -8 16 -4 16 10 6 69 -20
115 -15 25 -16 36 -7 47 14 18 19 17 38 0z m1361 -45 c0 -5 -7 -11 -15 -15
-15 -5 -20 5 -8 17 9 10 23 9 23 -2z m-80 -50 c0 -6 -4 -13 -10 -16 -5 -3 -10
1 -10 9 0 9 5 16 10 16 6 0 10 -4 10 -9z m11 -54 c-13 -13 -26 -3 -16 12 3 6
11 8 17 5 6 -4 6 -10 -1 -17z m-104 -203 c-3 -3 -12 -4 -19 -1 -8 3 -5 6 6 6
11 1 17 -2 13 -5z m-1337 -390 c0 -8 -4 -12 -10 -9 -5 3 -10 10 -10 16 0 5 5
9 10 9 6 0 10 -7 10 -16z m385 -1364 c3 -5 1 -10 -4 -10 -6 0 -11 5 -11 10 0
6 2 10 4 10 3 0 8 -4 11 -10z m5630 -240 c3 -5 1 -10 -4 -10 -6 0 -11 5 -11
10 0 6 2 10 4 10 3 0 8 -4 11 -10z m35 -41 c0 -5 -7 -9 -15 -9 -8 0 -15 7 -15
15 0 9 6 12 15 9 8 -4 15 -10 15 -15z m360 -53 c0 -8 -4 -17 -9 -20 -10 -7
-23 19 -14 28 11 11 23 6 23 -8z m167 -42 c-9 -9 -28 6 -21 18 4 6 10 6 17 -1
6 -6 8 -13 4 -17z m-607 -234 c-10 -19 -30 -28 -30 -14 0 6 30 33 38 34 1 0
-2 -9 -8 -20z m-2900 -10 c0 -5 -4 -10 -10 -10 -5 0 -10 5 -10 10 0 6 5 10 10
10 6 0 10 -4 10 -10z m93 -67 c4 -3 -1 -12 -11 -19 -15 -12 -14 -13 11 -14 29
0 34 -9 15 -28 -17 -17 -53 -15 -68 3 -10 12 -9 15 5 15 10 0 15 5 12 14 -8
21 21 45 36 29z m1982 -81 c-11 -2 -24 -8 -29 -13 -6 -5 -29 -9 -52 -9 -24 0
-45 -4 -49 -10 -8 -12 -37 0 -32 14 5 14 112 33 152 27 23 -4 25 -6 10 -9z
m-2045 -12 c0 -5 -4 -10 -10 -10 -5 0 -10 5 -10 10 0 6 5 10 10 10 6 0 10 -4
10 -10z m47 -6 c-3 -3 -12 -4 -19 -1 -8 3 -5 6 6 6 11 1 17 -2 13 -5z m73 2
c0 -3 -4 -8 -10 -11 -5 -3 -10 -1 -10 4 0 6 5 11 10 11 6 0 10 -2 10 -4z
m-3755 -56 c3 -5 -1 -10 -9 -10 -9 0 -16 5 -16 10 0 6 4 10 9 10 6 0 13 -4 16
-10z m6485 -200 c-36 -11 -50 -11 -50 0 0 6 17 10 38 9 33 -1 34 -2 12 -9z
m50 0 c0 -5 -2 -10 -4 -10 -3 0 -8 5 -11 10 -3 6 -1 10 4 10 6 0 11 -4 11 -10z
m73 -4 c17 6 62 -14 53 -24 -13 -13 -81 -8 -93 7 -18 24 -15 33 6 21 11 -5 26
-7 34 -4z m-5053 -80 c0 -11 -19 -15 -25 -6 -3 5 1 10 9 10 9 0 16 -2 16 -4z
m-10 -77 c0 -5 -9 -9 -20 -9 -11 0 -20 6 -20 14 0 9 7 12 20 9 11 -3 20 -9 20
-14z m270 -19 c0 -5 -7 -10 -15 -10 -8 0 -15 5 -15 10 0 6 7 10 15 10 8 0 15
-4 15 -10z m-255 -28 c-3 -3 -11 0 -18 7 -9 10 -8 11 6 5 10 -3 15 -9 12 -12z
m75 -32 c12 -8 9 -10 -12 -10 -16 0 -28 5 -28 10 0 13 20 13 40 0z m30 -50
c12 -6 16 -17 13 -30 l-6 -21 -22 21 c-12 11 -25 17 -28 13 -4 -3 -7 -1 -7 5
0 8 11 17 28 21 2 1 12 -3 22 -9z m74 -75 c4 -11 -1 -14 -18 -13 -15 1 -22 7
-19 15 7 18 30 16 37 -2z m-124 -10 c0 -9 6 -12 16 -8 15 5 33 -11 34 -29 0
-16 -48 -7 -74 13 -21 17 -25 24 -14 30 20 13 38 11 38 -6z m120 -45 c0 -5 -4
-10 -10 -10 -5 0 -10 5 -10 10 0 6 5 10 10 10 6 0 10 -4 10 -10z m780 -82 c0
-4 7 -8 15 -8 8 0 15 -4 15 -10 0 -5 -8 -9 -17 -8 -39 3 -53 -3 -53 -21 0 -20
-17 -38 -26 -28 -3 2 2 23 11 45 12 29 22 40 36 39 10 -1 19 -5 19 -9z m-101
-69 c-8 -5 -23 -9 -34 -9 -17 0 -17 2 5 14 27 14 52 10 29 -5z m-25 -120 c18
15 22 1 4 -17 -8 -8 -15 -9 -25 -1 -10 9 -13 8 -13 -5 0 -9 7 -16 15 -16 8 0
15 -4 15 -10 0 -5 -4 -10 -10 -10 -5 0 -10 -9 -10 -21 0 -13 -8 -23 -21 -26
-16 -4 -17 -8 -7 -14 7 -5 8 -9 2 -9 -5 0 -16 -16 -24 -35 -17 -44 -32 -46
-18 -2 5 17 10 41 9 52 0 11 9 30 21 42 14 15 19 29 14 47 -6 25 13 42 26 23
4 -7 12 -6 22 2z m-604 -78 c0 -6 -4 -13 -10 -16 -5 -3 -10 -16 -10 -28 0 -12
-9 -33 -20 -47 -11 -14 -20 -33 -20 -42 0 -9 -4 -19 -9 -22 -4 -3 -11 -31 -14
-63 -4 -32 -9 -70 -13 -84 -5 -23 -2 -28 25 -37 25 -9 31 -16 31 -41 0 -16 3
-38 6 -48 6 -15 4 -16 -7 -5 -7 6 -21 12 -30 12 -10 0 -29 14 -44 31 -20 24
-25 38 -20 59 5 22 1 33 -19 52 -35 32 -42 133 -9 145 17 7 59 39 74 58 70 85
89 101 89 76z m500 -71 c0 -5 -7 -10 -15 -10 -8 0 -15 5 -15 10 0 6 7 10 15
10 8 0 15 -4 15 -10z m0 -91 c0 -4 -12 -17 -27 -28 -24 -18 -25 -20 -8 -21 15
0 16 -3 7 -12 -9 -9 -16 -8 -30 5 -16 17 -16 19 1 28 19 11 24 39 6 39 -5 0
-8 4 -4 10 6 10 55 -8 55 -21z m1504 -3 c55 -2 71 -6 83 -22 14 -19 14 -18 33
6 l19 25 10 -25 c5 -14 10 -21 10 -16 1 6 8 1 16 -10 14 -19 14 -19 15 3 0 12
6 25 13 30 19 11 278 6 290 -6 8 -8 6 -11 -6 -11 -10 0 -17 -8 -17 -18 0 -15
6 -18 30 -14 21 3 30 10 30 23 0 21 22 38 28 21 2 -8 9 -9 21 -2 23 12 63 2
54 -14 -4 -6 4 -4 18 6 30 19 98 11 127 -16 14 -12 21 -13 30 -4 10 10 17 10
32 0 17 -10 21 -10 26 2 8 21 34 28 52 14 10 -9 63 -13 176 -13 88 -1 186 -5
216 -9 30 -4 71 -9 90 -11 19 -2 37 -4 39 -4 2 -1 -1 -7 -6 -13 -6 -7 -13 -21
-16 -31 -6 -16 -3 -18 23 -12 36 8 37 2 13 -72 -10 -29 -24 -53 -31 -53 -7 0
-15 -7 -18 -15 -4 -8 -12 -15 -19 -15 -7 0 -15 -4 -17 -8 -1 -4 -25 -17 -53
-29 -29 -13 -52 -29 -54 -40 -4 -23 -19 -33 -51 -33 -15 0 -31 -5 -38 -12 -9
-9 -24 -9 -64 0 -55 12 -92 8 -118 -13 -8 -7 -40 -20 -70 -30 -30 -9 -63 -21
-72 -26 -9 -5 -52 -6 -95 -2 -43 3 -113 5 -157 5 -65 -1 -83 2 -108 21 -28 21
-30 21 -60 4 -23 -13 -34 -15 -44 -6 -8 6 -25 8 -41 4 -22 -5 -24 -8 -12 -17
10 -7 8 -8 -11 -4 -62 15 -128 18 -134 7 -10 -16 -26 -14 -26 4 0 11 -11 15
-36 15 -27 0 -37 5 -41 20 -3 11 -13 21 -22 21 -69 6 -81 6 -81 0 0 -15 -58
-10 -64 5 -3 8 -12 14 -20 14 -9 0 -33 9 -55 21 -28 14 -49 18 -73 14 -29 -6
-39 -2 -66 23 -18 17 -32 28 -32 26 0 -8 -59 26 -67 39 -10 16 -58 37 -83 37
-11 0 -28 9 -38 21 -14 15 -26 18 -46 13 -22 -5 -26 -3 -26 14 0 15 -5 19 -19
15 -22 -6 -51 9 -103 50 -34 27 -39 28 -84 19 -47 -10 -84 -2 -84 18 0 10 124
25 139 16 13 -8 167 12 196 25 11 5 98 10 193 12 123 2 176 7 185 16 8 9 26
11 57 6 25 -4 76 -8 114 -9z m-1555 -108 c-12 -22 -29 -24 -29 -4 0 8 -3 21
-6 30 -5 13 -2 13 19 3 20 -9 23 -15 16 -29z m3121 12 c0 -5 -9 -10 -20 -10
-11 0 -20 5 -20 10 0 6 9 10 20 10 11 0 20 -4 20 -10z m-5102 -8 c9 -6 6 -16
-13 -38 -20 -24 -28 -27 -43 -18 -10 6 -49 10 -87 9 -39 -1 -76 2 -82 8 -7 5
-13 7 -13 4 0 -3 -14 -1 -31 5 -16 6 -27 13 -24 16 16 17 270 28 293 14z m65
-28 c-3 -8 -9 -14 -13 -14 -13 0 -22 19 -15 30 9 14 34 0 28 -16z m751 15 c-5
-8 -1 -8 14 0 26 14 45 14 37 1 -9 -14 8 -12 24 3 9 8 12 8 7 0 -8 -16 15 -22
36 -10 17 11 124 -9 134 -24 3 -5 0 -26 -6 -48 -10 -38 -31 -57 -59 -52 -9 2
-12 -3 -8 -13 4 -10 -1 -16 -15 -18 -28 -4 -34 -25 -10 -32 23 -8 32 -34 32
-93 0 -24 5 -43 10 -43 6 0 10 12 10 26 0 20 3 24 13 16 8 -7 25 -6 55 5 40
13 46 13 63 -3 10 -9 24 -34 29 -55 6 -21 15 -41 20 -44 5 -3 7 -21 4 -41 -2
-19 1 -44 7 -55 15 -28 -14 -73 -42 -64 -23 8 -26 -13 -3 -22 11 -4 14 -13 9
-30 -3 -14 -1 -31 6 -39 11 -13 2 -19 -23 -15 -13 2 -9 -37 5 -41 20 -7 14
-70 -9 -95 -25 -27 -55 -29 -90 -7 -19 13 -30 14 -47 7 -34 -16 -67 -14 -60 3
4 11 -5 14 -43 13 -50 -1 -50 -2 1 -15 29 -7 29 -8 -15 -14 -50 -8 -67 -3 -51
13 21 21 12 39 -16 36 -33 -3 -73 9 -73 22 0 5 12 9 28 10 26 1 26 1 -6 10
-25 8 -34 17 -39 39 -3 17 -9 30 -14 30 -5 0 -8 -5 -7 -11 5 -22 -23 -21 -29
0 -3 13 -12 21 -21 19 -9 -2 -30 9 -46 24 -23 21 -31 39 -36 75 -4 39 -9 47
-23 45 -11 -2 -17 4 -17 16 0 22 -47 58 -70 54 -12 -2 -13 -1 -1 6 11 8 11 11
-1 18 -9 5 -17 24 -20 42 -4 31 5 44 15 20 3 -7 6 -8 6 -2 1 5 -6 19 -14 30
-9 12 -14 14 -15 6 0 -19 -20 -4 -20 16 0 9 -7 30 -15 45 -13 26 -13 30 5 50
11 11 20 29 20 39 0 10 9 23 19 30 10 6 17 18 14 25 -3 7 2 13 11 13 9 0 16 5
16 10 0 6 -9 10 -20 10 -11 0 -20 -4 -20 -10 0 -5 -6 -10 -13 -10 -15 0 -19
29 -6 46 10 12 79 6 79 -7 0 -5 11 -9 25 -9 23 0 31 13 26 43 0 4 5 7 13 7 18
0 16 -102 -2 -108 -7 -2 -12 -10 -12 -19 0 -10 6 -12 20 -8 12 4 27 1 35 -5 8
-7 21 -10 30 -7 8 4 17 2 20 -3 4 -6 18 -4 35 5 32 17 45 7 35 -25 -4 -14 -2
-20 8 -20 24 0 27 38 5 65 -11 15 -17 29 -14 32 3 4 -2 16 -13 27 -10 12 -22
31 -26 44 -5 19 -3 22 19 22 19 0 26 -5 26 -20 0 -26 8 -25 32 5 19 24 46 36
32 14z m-130 -44 c11 -8 16 -18 13 -22 -4 -4 -13 -1 -19 5 -14 14 -28 16 -28
3 0 -5 16 -15 35 -22 45 -16 45 -34 1 -34 -41 0 -46 4 -56 49 -7 33 -6 36 14
36 11 0 30 -7 40 -15z m-629 -75 c3 -5 1 -10 -4 -10 -6 0 -11 5 -11 10 0 6 2
10 4 10 3 0 8 -4 11 -10z m2027 -73 c6 -12 6 -23 -2 -32 -7 -9 -8 -15 0 -20 5
-3 10 1 10 9 0 20 26 21 33 2 6 -15 62 -46 84 -46 7 0 21 -8 31 -17 9 -10 22
-18 27 -18 6 -1 22 -7 37 -14 22 -11 26 -19 22 -38 -7 -27 3 -29 34 -7 14 9
30 13 44 8 21 -6 21 -7 2 -21 -18 -13 -17 -14 8 -8 20 5 32 1 49 -16 16 -16
33 -22 55 -20 18 1 35 -3 39 -9 4 -6 18 -15 32 -21 13 -5 21 -13 18 -19 -3 -5
1 -10 9 -10 9 0 16 -6 16 -14 0 -8 9 -18 20 -21 14 -5 19 -12 15 -25 -4 -13 1
-19 20 -24 20 -5 25 -13 25 -36 0 -25 4 -30 24 -30 25 0 40 -28 27 -49 -7 -11
-308 -18 -319 -7 -3 3 -11 1 -18 -5 -10 -8 -22 -8 -45 0 -43 15 -71 14 -103
-3 -31 -16 -66 -10 -66 10 0 17 -14 18 -42 3 -14 -8 -23 -8 -31 0 -15 15 -27
14 -27 -2 0 -8 -11 -12 -27 -11 -16 1 -28 2 -28 3 0 1 -17 4 -37 6 -21 2 -38
0 -38 -5 0 -20 -48 -10 -53 10 -3 11 -2 22 1 24 4 2 52 5 106 5 61 1 103 5
107 12 5 8 8 8 13 0 4 -6 14 -11 22 -11 9 0 12 5 8 11 -5 9 1 10 20 5 14 -3
38 -9 52 -12 19 -5 25 -3 20 4 -4 6 5 19 19 28 23 15 26 22 20 58 -7 43 -45
86 -77 86 -10 0 -22 9 -28 20 -6 11 -7 20 -3 20 4 0 -4 8 -20 18 -15 10 -24
22 -20 26 4 4 -1 4 -11 0 -12 -5 -17 -2 -16 7 4 28 -13 57 -36 63 -13 4 -23
12 -21 18 1 7 -7 14 -18 16 -31 6 -45 22 -45 50 0 14 -7 33 -16 43 -17 19 -12
55 6 44 6 -4 10 -3 9 2 -4 23 4 24 27 2 14 -13 30 -32 36 -42z m4419 33 c22
12 76 7 91 -8 7 -7 27 -12 44 -12 18 0 36 -4 39 -10 3 -5 13 -10 21 -10 8 0
12 5 9 10 -13 20 37 9 57 -12 13 -16 21 -19 24 -10 8 19 42 15 40 -5 -1 -13
12 -20 49 -29 85 -19 95 -24 95 -50 0 -28 30 -33 54 -9 14 14 17 14 36 -2 11
-10 30 -21 43 -24 19 -5 22 -11 19 -47 -2 -32 1 -42 13 -42 8 0 15 -5 15 -10
0 -7 -13 -8 -35 -4 -25 4 -35 3 -35 -6 0 -21 -80 -2 -129 30 -24 17 -51 30
-58 30 -17 0 -69 59 -66 74 2 6 -22 22 -51 36 -30 14 -53 22 -50 19 8 -14 -60
-16 -85 -3 -14 8 -36 14 -48 14 -12 0 -24 4 -27 9 -3 5 -25 12 -49 15 -27 4
-47 14 -55 27 -15 23 -6 47 11 30 6 -6 16 -7 28 -1z m-65 -47 c-10 -10 -19 5
-10 18 6 11 8 11 12 0 2 -7 1 -15 -2 -18z m-4666 -69 c0 -2 -9 -4 -21 -4 -11
0 -18 4 -14 10 5 8 35 3 35 -6z m-1690 -94 c0 -5 -4 -10 -10 -10 -5 0 -10 5
-10 10 0 6 5 10 10 10 6 0 10 -4 10 -10z m7150 0 c13 -8 13 -10 -2 -11 -31 -3
-36 -4 -44 -11 -4 -5 -2 -8 4 -8 7 0 12 -5 12 -11 0 -6 -10 -9 -22 -7 -17 2
-24 11 -26 31 -3 25 0 27 30 27 18 0 40 -5 48 -10z m-4752 -25 c-3 -3 -13 -2
-22 1 -14 5 -15 9 -4 15 13 8 36 -6 26 -16z m4902 7 c36 -18 40 -39 5 -34 -11
2 -36 -2 -56 -9 -24 -7 -46 -8 -63 -3 l-26 9 22 28 c26 32 65 35 118 9z
m-5737 -77 c25 -23 27 -27 13 -40 -17 -17 -7 -62 13 -58 6 2 8 -4 5 -12 -4 -9
-19 -15 -40 -15 -27 0 -34 -4 -34 -19 0 -11 6 -22 13 -24 6 -3 2 -6 -9 -6 -12
-1 -25 -8 -28 -17 -9 -24 -7 -66 3 -59 5 3 13 0 17 -6 3 -6 1 -15 -6 -19 -10
-6 -9 -14 3 -39 10 -21 12 -33 5 -37 -6 -4 0 -12 14 -20 35 -18 44 -54 15 -54
-19 0 -19 -2 7 -15 15 -8 35 -15 42 -15 17 0 19 -30 2 -30 -19 -1 54 -39 75
-40 9 0 17 -2 17 -5 0 -9 -25 -50 -35 -57 -6 -5 -4 -12 5 -18 9 -5 19 -5 24 0
18 18 35 -1 29 -32 -4 -18 -1 -33 6 -37 8 -5 6 -13 -8 -25 -22 -20 -76 -12
-67 9 6 16 -17 26 -41 19 -14 -4 -15 -3 -5 4 11 7 11 10 -2 15 -9 4 -16 13
-16 20 0 8 -7 20 -15 27 -8 7 -12 16 -9 21 3 5 -2 9 -11 9 -11 0 -15 8 -13 28
3 23 0 27 -19 24 -19 -3 -23 2 -23 23 0 14 -16 48 -35 76 -19 28 -35 60 -35
70 0 11 -4 19 -8 19 -4 0 -17 24 -27 53 -18 50 -21 96 -6 107 17 12 51 70 51
87 0 10 4 23 9 29 6 5 11 20 13 34 2 14 7 31 11 38 14 21 70 13 100 -13z m127
-30 c0 -15 -6 -25 -14 -25 -23 0 -28 17 -10 34 21 21 24 20 24 -9z m-2041 -4
c9 -6 10 -11 2 -15 -13 -8 -31 1 -31 15 0 11 11 11 29 0z m3366 -21 c16 -18
16 -20 2 -20 -10 0 -17 5 -17 10 0 6 -7 10 -15 10 -8 0 -15 5 -15 10 0 17 26
11 45 -10z m-1375 -54 c0 -17 -14 -29 -23 -20 -8 8 3 34 14 34 5 0 9 -6 9 -14z
m1501 -29 c-1 -12 -15 -9 -19 4 -3 6 1 10 8 8 6 -3 11 -8 11 -12z m94 -37 c3
-5 2 -10 -4 -10 -5 0 -13 5 -16 10 -3 6 -2 10 4 10 5 0 13 -4 16 -10z m-2105
-166 c0 -2 -9 -4 -21 -4 -11 0 -18 4 -14 10 5 8 35 3 35 -6z m-1296 -10 c9 -3
16 -11 16 -17 0 -6 -3 -7 -6 -4 -4 3 -15 2 -26 -4 -25 -13 -35 -4 -18 16 14
17 13 17 34 9z m2919 -24 c13 0 17 -4 12 -9 -15 -14 -175 -25 -175 -12 0 11
33 16 77 12 12 -1 25 3 28 9 4 6 14 9 22 6 8 -3 24 -6 36 -6z m-2973 -30 c0
-5 -5 -10 -11 -10 -5 0 -7 5 -4 10 3 6 8 10 11 10 2 0 4 -4 4 -10z m2495 0 c6
-10 -41 -14 -110 -10 -17 0 -44 -4 -59 -10 -17 -6 -48 -8 -75 -4 -42 6 -43 8
-21 16 14 5 42 7 63 5 20 -3 37 -1 37 4 0 12 157 11 165 -1z m205 6 c0 -11
-19 -15 -25 -6 -3 5 1 10 9 10 9 0 16 -2 16 -4z m-2630 -32 c0 -8 -5 -12 -10
-9 -6 4 -8 11 -5 16 9 14 15 11 15 -7z m-182 -6 c-3 -7 -15 -15 -28 -16 -21
-3 -22 -2 -11 12 16 19 44 21 39 4z m82 2 c0 -5 -5 -10 -11 -10 -5 0 -7 5 -4
10 3 6 8 10 11 10 2 0 4 -4 4 -10z m-52 -57 c-10 -2 -28 -2 -40 0 -13 2 -5 4
17 4 22 1 32 -1 23 -4z m912 -137 c0 -2 -7 -6 -15 -10 -8 -3 -15 -1 -15 4 0 6
7 10 15 10 8 0 15 -2 15 -4z m-886 -165 c3 -5 -1 -14 -9 -21 -12 -10 -18 -10
-30 0 -8 7 -15 16 -15 21 0 12 47 12 54 0z m343 -17 c-9 -9 -28 6 -21 18 4 6
10 6 17 -1 6 -6 8 -13 4 -17z m-107 -4 c0 -4 -6 -13 -14 -19 -11 -9 -15 -7
-19 8 -3 11 -3 22 0 25 7 6 33 -4 33 -14z m175 10 c3 -5 1 -10 -4 -10 -6 0
-11 5 -11 10 0 6 2 10 4 10 3 0 8 -4 11 -10z m-316 -9 c12 -8 9 -11 -12 -17
-32 -7 -49 3 -27 16 19 12 21 12 39 1z m51 -11 c0 -5 -4 -10 -10 -10 -5 0 -10
5 -10 10 0 6 5 10 10 10 6 0 10 -4 10 -10z m240 -31 c0 -11 -27 -12 -34 0 -3
4 -3 11 0 14 8 8 34 -3 34 -14z m68 3 c2 -7 -2 -10 -12 -6 -11 4 -16 1 -16
-11 0 -14 -3 -15 -15 -5 -13 11 -13 14 2 26 20 15 35 14 41 -4z m-392 -6 c19
-14 19 -15 0 -22 -12 -5 -23 -2 -30 8 -6 8 -18 17 -26 21 -9 3 -5 6 11 6 14 1
34 -5 45 -13z m131 -19 c-1 -5 -6 -8 -10 -8 -4 1 -14 1 -22 1 -8 0 -15 4 -15
10 0 5 11 9 25 8 14 -1 24 -6 22 -11z m-180 -13 c-3 -3 -12 -4 -19 -1 -8 3 -5
6 6 6 11 1 17 -2 13 -5z m276 -16 c4 -12 4 -24 2 -27 -8 -7 -45 31 -39 40 10
17 32 9 37 -13z m-185 -11 c8 -7 18 -5 31 7 17 16 19 16 24 -6 6 -22 7 -22 21
-3 12 16 16 17 30 6 9 -7 16 -19 16 -27 0 -7 9 -16 21 -19 14 -5 18 -10 11
-17 -12 -12 -82 -2 -82 12 0 16 -27 11 -34 -5 -7 -20 -36 -8 -36 15 0 10 -13
23 -30 30 -16 7 -30 16 -30 20 0 10 40 1 58 -13z m212 -77 c12 -8 11 -10 -7
-10 -13 0 -23 5 -23 10 0 13 11 13 30 0z m-266 -22 c8 -31 7 -38 -2 -38 -12 0
-32 46 -25 54 12 11 21 6 27 -16z m50 16 c9 -3 16 -10 16 -16 0 -14 -43 -5
-48 10 -4 13 7 15 32 6z m76 -14 c0 -5 -7 -10 -15 -10 -8 0 -15 5 -15 10 0 6
7 10 15 10 8 0 15 -4 15 -10z m125 -12 c28 -12 35 -34 8 -23 -10 4 -36 7 -59
6 -26 -1 -45 4 -54 14 -11 13 -7 15 33 15 25 0 58 -5 72 -12z m22 -51 c3 -4
-10 -7 -30 -7 -20 0 -37 3 -37 8 0 9 57 8 67 -1z m108 -8 c-8 -12 -35 -12 -35
0 0 11 22 20 33 14 4 -2 5 -9 2 -14z m-367 -10 c-2 -6 -8 -10 -13 -10 -5 0
-11 4 -13 10 -2 6 4 11 13 11 9 0 15 -5 13 -11z m119 -8 c3 -11 12 -22 22 -24
12 -4 11 -5 -5 -6 -26 -1 -59 23 -50 37 11 18 27 14 33 -7z m-138 -35 c-2 -2
-14 -9 -26 -15 -18 -9 -23 -9 -23 1 0 8 12 15 27 16 14 1 25 0 22 -2z m326
-21 c0 -9 -72 -8 -87 2 -21 12 -3 18 40 13 26 -3 47 -9 47 -15z m240 -5 c3 -5
1 -10 -4 -10 -6 0 -11 5 -11 10 0 6 2 10 4 10 3 0 8 -4 11 -10z m72 -72 c-3
-8 -6 -5 -6 6 -1 11 2 17 5 13 3 -3 4 -12 1 -19z m6916 -122 c8 -19 1 -24 -28
-19 -19 4 -21 8 -12 19 16 17 33 18 40 0z m-1156 -268 c-3 -8 -6 -5 -6 6 -1
11 2 17 5 13 3 -3 4 -12 1 -19z m33 -78 c-11 -7 -4 -10 23 -10 23 0 36 4 32
10 -3 6 3 10 14 10 12 0 21 -4 21 -9 0 -5 10 -12 23 -14 12 -2 -21 -5 -73 -5
-65 -1 -90 1 -80 8 13 9 13 10 0 11 -8 1 -1 4 15 8 35 8 46 4 25 -9z"/>
<path d="M2750 7850 c-13 -8 -12 -10 3 -10 9 0 17 5 17 10 0 12 -1 12 -20 0z"/>
<path d="M2810 7847 c0 -8 -10 -26 -21 -41 -24 -30 -23 -34 9 -39 12 -2 24 -6
27 -9 4 -3 15 -3 26 -1 27 8 20 39 -9 36 -19 -2 -21 1 -16 26 4 16 1 32 -5 35
-6 4 -11 1 -11 -7z"/>
<path d="M2726 7821 c-4 -7 -5 -15 -2 -18 9 -9 19 4 14 18 -4 11 -6 11 -12 0z"/>
<path d="M2945 7790 c-3 -5 -1 -10 4 -10 6 0 11 5 11 10 0 6 -2 10 -4 10 -3 0
-8 -4 -11 -10z"/>
<path d="M2895 7761 c-6 -11 9 -23 19 -14 9 9 7 23 -3 23 -6 0 -12 -4 -16 -9z"/>
<path d="M3020 7710 c0 -5 5 -10 10 -10 6 0 10 5 10 10 0 6 -4 10 -10 10 -5 0
-10 -4 -10 -10z"/>
<path d="M3816 7750 l-30 -19 30 4 c16 2 34 4 41 4 7 1 10 8 7 16 -8 19 -12
18 -48 -5z"/>
<path d="M1427 7767 c-4 -10 -7 -26 -6 -35 0 -10 3 -12 5 -5 3 7 13 9 22 6 11
-3 13 -2 6 4 -7 4 -13 17 -16 28 -3 19 -4 19 -11 2z"/>
<path d="M1490 7751 c0 -30 17 -34 22 -6 4 17 1 25 -8 25 -8 0 -14 -9 -14 -19z"/>
<path d="M3850 2330 c0 -5 5 -10 10 -10 6 0 10 5 10 10 0 6 -4 10 -10 10 -5 0
-10 -4 -10 -10z"/>
<path d="M3780 2311 c0 -12 6 -21 16 -21 9 0 14 7 12 17 -5 25 -28 28 -28 4z"/>
<path d="M4480 2292 c0 -5 7 -16 16 -23 14 -12 16 -11 13 5 -4 20 -29 35 -29
18z"/>
<path d="M4580 2280 c0 -11 7 -20 15 -20 8 0 15 9 15 20 0 11 -7 20 -15 20 -8
0 -15 -9 -15 -20z"/>
<path d="M4385 2270 c-3 -5 -1 -10 4 -10 6 0 11 5 11 10 0 6 -2 10 -4 10 -3 0
-8 -4 -11 -10z"/>
<path d="M4905 2270 c3 -5 8 -10 11 -10 2 0 4 5 4 10 0 6 -5 10 -11 10 -5 0
-7 -4 -4 -10z"/>
<path d="M4960 1998 c0 -25 3 -29 12 -20 18 18 20 52 3 52 -10 0 -15 -10 -15
-32z"/>
<path d="M5010 2020 c0 -5 5 -10 10 -10 6 0 10 5 10 10 0 6 -4 10 -10 10 -5 0
-10 -4 -10 -10z"/>
<path d="M5025 1999 l-20 -21 30 8 c39 9 46 13 40 25 -9 14 -28 10 -50 -12z"/>
<path d="M4105 1940 c-3 -5 -1 -10 4 -10 6 0 11 5 11 10 0 6 -2 10 -4 10 -3 0
-8 -4 -11 -10z"/>
<path d="M1300 2180 c0 -5 5 -10 10 -10 6 0 10 5 10 10 0 6 -4 10 -10 10 -5 0
-10 -4 -10 -10z"/>
<path d="M865 2170 c-3 -5 1 -10 10 -10 9 0 13 5 10 10 -3 6 -8 10 -10 10 -2
0 -7 -4 -10 -10z"/>
<path d="M800 2119 c0 -5 5 -7 10 -4 6 3 10 8 10 11 0 2 -4 4 -10 4 -5 0 -10
-5 -10 -11z"/>
<path d="M855 2080 c-3 -5 -2 -10 4 -10 5 0 13 5 16 10 3 6 2 10 -4 10 -5 0
-13 -4 -16 -10z"/>
<path d="M1197 2065 c-4 -8 -2 -17 3 -20 6 -4 10 3 10 14 0 25 -6 27 -13 6z"/>
<path d="M770 2060 c0 -5 5 -10 10 -10 6 0 10 5 10 10 0 6 -4 10 -10 10 -5 0
-10 -4 -10 -10z"/>
<path d="M880 2054 c0 -8 5 -12 10 -9 6 3 10 10 10 16 0 5 -4 9 -10 9 -5 0
-10 -7 -10 -16z"/>
<path d="M945 2061 c-3 -5 -1 -12 5 -16 5 -3 10 1 10 9 0 18 -6 21 -15 7z"/>
<path d="M745 2047 c-4 -10 -5 -21 -1 -24 10 -10 18 4 13 24 -4 17 -4 17 -12
0z"/>
<path d="M776 1995 c4 -8 8 -15 10 -15 2 0 4 7 4 15 0 8 -4 15 -10 15 -5 0 -7
-7 -4 -15z"/>
<path d="M751 1984 c0 -11 3 -14 6 -6 3 7 2 16 -1 19 -3 4 -6 -2 -5 -13z"/>
<path d="M900 1920 c0 -5 7 -10 16 -10 8 0 12 5 9 10 -3 6 -10 10 -16 10 -5 0
-9 -4 -9 -10z"/>
<path d="M858 1879 c-18 -10 -25 -39 -10 -39 4 0 16 7 26 15 24 18 10 39 -16
24z"/>
<path d="M951 1881 c-7 -5 -9 -11 -4 -14 5 -3 15 -2 22 2 7 5 9 11 4 14 -5 3
-15 2 -22 -2z"/>
<path d="M1047 1875 c-4 -8 -2 -17 3 -20 6 -4 10 -4 10 -1 0 2 3 11 6 20 3 9
2 16 -4 16 -5 0 -12 -7 -15 -15z"/>
<path d="M1413 1749 c-1 -12 3 -19 10 -16 17 5 21 37 5 37 -8 0 -14 -9 -15
-21z"/>
<path d="M1105 1570 c-3 -5 -1 -10 4 -10 6 0 11 5 11 10 0 6 -2 10 -4 10 -3 0
-8 -4 -11 -10z"/>
<path d="M1180 1545 c0 -2 12 -12 26 -21 22 -15 27 -15 35 -3 15 24 10 29 -26
29 -19 0 -35 -2 -35 -5z"/>
<path d="M1870 1768 c-12 -22 -12 -22 6 -6 10 10 15 20 12 24 -4 3 -12 -5 -18
-18z"/>
<path d="M1885 1440 c3 -5 11 -10 16 -10 6 0 7 5 4 10 -3 6 -11 10 -16 10 -6
0 -7 -4 -4 -10z"/>
<path d="M4458 6813 c7 -3 16 -2 19 1 4 3 -2 6 -13 5 -11 0 -14 -3 -6 -6z"/>
<path d="M4530 6554 c-165 -28 -254 -57 -294 -97 -26 -26 -47 -88 -35 -103 8
-10 7 -17 -5 -29 -9 -9 -16 -33 -16 -53 0 -39 -30 -129 -47 -140 -18 -13 -22
-54 -7 -77 8 -12 17 -32 19 -44 7 -37 47 -94 55 -81 6 9 11 7 19 -9 15 -27 31
-27 24 0 -6 21 -6 21 23 3 16 -10 33 -24 37 -31 5 -8 12 -11 18 -8 5 4 15 3
22 -2 6 -4 21 -8 32 -8 13 0 21 -8 23 -22 3 -23 26 -31 37 -13 12 19 33 11 28
-10 -6 -23 12 -50 35 -50 13 0 12 3 -3 20 -10 11 -15 23 -11 27 7 7 45 -34 46
-48 0 -4 -9 -9 -19 -12 -19 -5 -19 -6 -3 -40 16 -33 37 -43 25 -12 -3 8 0 15
6 15 6 0 11 -4 11 -10 0 -5 5 -10 10 -10 6 0 10 7 10 15 0 8 5 15 10 15 6 0
10 5 10 11 0 6 -9 8 -21 4 -18 -6 -20 -5 -10 14 13 24 22 26 39 9 10 -10 14
-8 18 10 4 14 14 22 28 22 12 0 31 7 42 15 12 8 24 11 28 8 3 -3 6 -1 6 6 0 7
4 10 8 7 15 -9 39 29 31 50 -10 26 0 63 22 85 11 11 19 28 19 38 0 11 4 21 10
23 16 5 53 118 60 187 10 84 -7 147 -56 206 -37 44 -50 53 -134 96 -37 19
-108 30 -150 23z m-280 -196 c0 -13 -23 -5 -28 10 -2 7 2 10 12 6 9 -3 16 -11
16 -16z m45 -57 c7 -12 -31 -25 -46 -15 -8 4 -7 9 2 15 18 11 36 11 44 0z
m-71 -16 c-4 -8 -8 -15 -10 -15 -2 0 -4 7 -4 15 0 8 4 15 10 15 5 0 7 -7 4
-15z m286 -235 c0 -5 -4 -10 -10 -10 -5 0 -10 5 -10 10 0 6 5 10 10 10 6 0 10
-4 10 -10z m-207 -17 c-7 -2 -19 -2 -25 0 -7 3 -2 5 12 5 14 0 19 -2 13 -5z
m134 -9 c-3 -3 -12 -4 -19 -1 -8 3 -5 6 6 6 11 1 17 -2 13 -5z m-143 -59 c3
-9 -7 -14 -30 -17 -43 -5 -52 5 -23 26 23 16 44 12 53 -9z m144 -87 c-2 -6
-10 -14 -16 -16 -7 -2 -10 2 -6 12 7 18 28 22 22 4z m122 -58 c0 -5 -7 -10
-15 -10 -8 0 -15 5 -15 10 0 6 7 10 15 10 8 0 15 -4 15 -10z"/>
<path d="M200 5900 c0 -5 5 -10 10 -10 6 0 10 5 10 10 0 6 -4 10 -10 10 -5 0
-10 -4 -10 -10z"/>
<path d="M0 5757 c0 -105 0 -105 27 -114 34 -12 121 10 138 34 10 13 10 21 1
35 -6 10 -14 18 -18 18 -4 0 -25 17 -46 38 -22 20 -54 50 -71 65 l-31 29 0
-105z"/>
<path d="M1510 5360 c-8 -14 -7 -25 2 -40 10 -17 11 -22 0 -28 -12 -8 -10 -19
50 -224 11 -37 24 -70 29 -73 5 -4 9 -19 9 -35 0 -15 6 -30 13 -33 7 -3 14
-22 15 -43 2 -22 7 -43 12 -48 6 -6 10 -26 10 -46 0 -19 7 -45 15 -57 11 -16
12 -22 2 -26 -9 -4 -9 -7 1 -18 6 -7 12 -21 12 -30 0 -10 6 -19 13 -22 9 -3 9
-7 -1 -19 -9 -12 -10 -18 -2 -23 6 -4 9 -13 6 -21 -7 -19 3 -44 19 -44 8 0 16
-8 19 -18 7 -20 37 -25 48 -9 4 8 14 8 30 0 13 -5 29 -8 36 -6 19 7 14 30 -8
36 -14 4 -18 10 -14 22 5 12 2 16 -11 13 -10 -2 -20 3 -23 11 -3 10 0 12 12 8
9 -4 16 -3 16 2 0 5 -9 11 -20 14 -24 6 -26 20 -5 41 17 17 20 30 5 21 -6 -4
-17 -1 -26 5 -11 10 -12 16 -3 26 7 9 8 14 1 14 -14 0 -23 54 -10 61 6 4 7 12
2 20 -5 8 -7 24 -6 36 2 14 -4 26 -19 33 -17 10 -19 14 -8 21 11 7 11 11 1 17
-7 5 -10 16 -7 24 4 10 -2 22 -17 32 -20 14 -20 16 -3 16 17 0 17 2 -5 25 -18
20 -21 28 -12 37 18 18 14 35 -8 41 -17 4 -20 14 -20 71 0 51 -3 64 -14 60
-14 -6 -46 36 -46 61 0 9 -10 35 -22 58 -33 61 -50 71 -68 37z m220 -734 c0
-3 -4 -8 -10 -11 -5 -3 -10 -1 -10 4 0 6 5 11 10 11 6 0 10 -2 10 -4z m40 -46
c0 -5 -2 -10 -4 -10 -3 0 -8 5 -11 10 -3 6 -1 10 4 10 6 0 11 -4 11 -10z"/>
<path d="M1700 5015 c0 -8 5 -15 10 -15 6 0 10 7 10 15 0 8 -4 15 -10 15 -5 0
-10 -7 -10 -15z"/>
<path d="M1992 4635 c0 -16 2 -22 5 -12 2 9 2 23 0 30 -3 6 -5 -1 -5 -18z"/>
<path d="M3410 4625 c0 -8 5 -15 10 -15 6 0 10 7 10 15 0 8 -4 15 -10 15 -5 0
-10 -7 -10 -15z"/>
<path d="M3341 4596 c-6 -7 -28 -16 -49 -20 -39 -6 -82 -48 -82 -80 0 -8 -13
-28 -29 -44 -17 -16 -33 -41 -37 -56 -3 -14 -10 -26 -14 -26 -5 0 -5 -14 0
-31 6 -20 6 -39 -1 -51 -7 -14 -7 -23 1 -33 6 -7 8 -24 5 -38 -4 -14 -2 -28 4
-31 6 -4 10 -22 10 -39 -1 -18 -3 -25 -6 -16 -2 9 -14 21 -26 26 -17 8 -22 18
-21 44 1 19 -5 42 -13 51 -8 9 -12 21 -9 27 4 5 2 12 -3 16 -5 3 -9 13 -8 23
1 19 -31 72 -43 72 -4 0 -10 9 -13 21 -5 18 -11 20 -36 14 -35 -7 -40 1 -13
21 16 13 16 13 0 14 -10 0 -18 5 -18 11 0 6 -9 8 -22 3 -32 -9 -35 -14 -15
-25 9 -6 17 -19 17 -29 0 -15 -7 -20 -28 -20 -40 0 -66 -31 -59 -70 4 -17 2
-30 -3 -30 -25 0 -90 26 -90 36 0 12 42 34 65 34 20 0 9 81 -13 97 -9 7 -23
17 -30 23 -23 20 -102 -41 -102 -80 0 -6 4 -9 9 -6 8 5 35 -43 28 -51 -3 -2
-22 -6 -43 -9 -59 -9 -68 -12 -57 -27 16 -19 24 -65 17 -92 -4 -18 -13 -25
-30 -25 -13 0 -24 -5 -24 -11 0 -6 -23 -9 -62 -7 -42 2 -62 -1 -65 -10 -3 -8
1 -10 14 -5 16 6 16 5 4 -10 -7 -9 -17 -15 -21 -12 -4 3 -11 -10 -15 -28 -17
-73 -17 -77 10 -87 15 -6 24 -14 20 -20 -6 -10 -36 -2 -47 14 -4 6 -35 11 -70
12 -173 3 -379 16 -427 25 -84 17 -105 18 -120 5 -11 -8 -15 -8 -18 0 -2 7
-13 10 -24 7 -11 -3 -27 1 -37 10 -18 16 -102 47 -127 47 -25 0 -16 -30 13
-43 15 -6 32 -17 37 -23 6 -7 27 -15 47 -18 20 -4 38 -11 40 -16 2 -6 15 -11
31 -12 15 -1 27 -6 27 -10 0 -5 11 -6 24 -2 15 3 29 0 39 -11 9 -9 21 -14 27
-10 5 3 18 1 29 -4 12 -7 38 -7 77 -1 47 8 61 7 69 -4 6 -7 30 -17 54 -21 l44
-7 -37 -17 c-44 -20 -85 -87 -57 -95 9 -3 34 -1 55 4 22 5 43 7 47 4 11 -6 40
7 34 16 -3 4 2 11 10 14 9 3 18 -1 21 -9 4 -10 11 -12 22 -6 32 16 93 22 107
11 16 -14 35 -5 35 16 0 8 -9 14 -21 14 -25 0 -20 23 7 29 10 2 24 11 31 20
10 13 14 13 21 3 5 -7 15 -10 24 -7 16 6 48 -47 48 -80 0 -9 4 -14 8 -11 9 5
-1 123 -13 170 -6 21 -5 27 4 22 6 -4 11 -3 11 2 0 4 18 18 39 29 43 23 76 21
101 -7 8 -10 25 -20 37 -24 23 -7 49 -33 41 -41 -3 -3 -18 1 -33 9 -34 18 -54
10 -28 -10 17 -13 17 -13 -4 -14 -27 0 -38 -16 -17 -24 8 -3 13 -9 11 -14 -8
-11 17 -41 34 -40 7 1 23 0 33 0 20 -2 20 -2 0 -17 -18 -14 -17 -14 12 -15 16
0 73 -12 125 -26 51 -14 110 -29 129 -34 54 -14 201 -68 242 -90 33 -17 38
-17 50 -3 7 8 11 28 10 43 -2 16 4 42 12 58 8 16 13 32 10 35 -3 3 5 21 19 39
35 47 59 152 51 222 -5 40 -3 65 7 82 10 19 10 27 2 32 -16 10 -19 176 -4 228
12 44 8 68 -17 96 -12 14 -12 20 -2 33 7 8 10 15 7 15 -2 0 -10 -6 -16 -14z
m-426 -312 c15 5 21 -14 9 -27 -10 -10 -54 15 -54 31 0 12 3 12 15 2 8 -7 22
-10 30 -6z m-698 -330 c-3 -3 -12 -4 -19 -1 -8 3 -5 6 6 6 11 1 17 -2 13 -5z
m76 -43 c10 -11 6 -13 -20 -8 -17 4 -33 2 -35 -2 -2 -5 -39 -6 -83 -3 l-80 5
45 13 c55 16 156 13 173 -5z"/>
<path d="M2030 4565 c0 -8 4 -15 10 -15 5 0 7 7 4 15 -4 8 -8 15 -10 15 -2 0
-4 -7 -4 -15z"/>
<path d="M2785 4550 c3 -5 8 -10 11 -10 2 0 4 5 4 10 0 6 -5 10 -11 10 -5 0
-7 -4 -4 -10z"/>
<path d="M1996 4524 c-3 -9 -3 -21 1 -27 7 -12 11 -18 41 -54 9 -11 34 -24 55
-28 36 -6 38 -5 27 14 -6 12 -17 21 -25 21 -9 0 -15 10 -16 28 0 15 -3 21 -6
15 -8 -20 -17 -15 -36 17 -20 34 -32 38 -41 14z"/>
<path d="M2840 4511 c0 -6 5 -13 10 -16 6 -3 10 1 10 9 0 9 -4 16 -10 16 -5 0
-10 -4 -10 -9z"/>
<path d="M1770 4470 c0 -5 4 -10 9 -10 6 0 13 5 16 10 3 6 -1 10 -9 10 -9 0
-16 -4 -16 -10z"/>
<path d="M1820 4466 c0 -2 7 -9 15 -16 12 -10 15 -10 15 4 0 9 -7 16 -15 16
-8 0 -15 -2 -15 -4z"/>
<path d="M1991 4434 c0 -11 3 -14 6 -6 3 7 2 16 -1 19 -3 4 -6 -2 -5 -13z"/>
<path d="M3513 4432 c-11 -9 -23 -26 -25 -37 -2 -13 -11 -20 -25 -20 -31 0
-37 -10 -41 -65 -3 -44 -1 -50 16 -50 11 0 34 18 53 40 19 22 39 40 45 40 6 0
17 7 24 15 10 12 9 16 -2 20 -18 7 -20 35 -3 35 7 0 18 6 24 14 9 11 7 15 -11
20 -31 8 -30 8 -55 -12z m-33 -82 c0 -5 -5 -10 -11 -10 -5 0 -7 5 -4 10 3 6 8
10 11 10 2 0 4 -4 4 -10z"/>
<path d="M3793 4433 c-7 -2 -13 -12 -12 -21 0 -11 2 -12 6 -4 2 6 11 12 19 12
8 0 14 5 14 10 0 11 -7 12 -27 3z"/>
<path d="M3570 4401 c0 -17 18 -21 24 -6 3 9 0 15 -9 15 -8 0 -15 -4 -15 -9z"/>
<path d="M3623 4390 c-13 -5 -23 -12 -23 -16 0 -4 26 -31 58 -60 91 -85 152
-105 152 -50 0 17 -4 24 -14 20 -20 -8 -26 28 -10 65 13 30 12 32 -12 41 -35
14 -37 13 -32 -15 3 -14 1 -25 -3 -25 -5 0 -9 4 -9 10 0 9 -64 41 -79 39 -3 0
-16 -4 -28 -9z"/>
<path d="M2402 4278 c3 -7 15 -14 29 -16 23 -2 23 -2 5 13 -24 18 -39 20 -34
3z"/>
<path d="M2585 4250 c-3 -5 1 -10 10 -10 9 0 13 5 10 10 -3 6 -8 10 -10 10 -2
0 -7 -4 -10 -10z"/>
<path d="M2425 4230 c-3 -5 4 -14 15 -20 16 -8 20 -8 20 4 0 16 -27 29 -35 16z"/>
<path d="M1479 4147 c7 -9 27 -17 44 -17 40 0 24 17 -23 26 -32 7 -34 6 -21
-9z"/>
<path d="M2585 4019 c-4 -6 -13 -8 -20 -5 -7 2 -16 2 -20 -2 -4 -4 -12 -7 -18
-7 -19 -1 -8 -58 14 -76 14 -10 19 -23 16 -40 -2 -13 -2 -18 0 -11 3 6 13 12
24 12 24 0 41 39 26 58 -15 18 -17 54 -5 70 7 8 7 12 0 12 -6 0 -14 -5 -17
-11z m-18 -41 c-3 -8 -6 -5 -6 6 -1 11 2 17 5 13 3 -3 4 -12 1 -19z"/>
<path d="M1659 3929 c-10 -6 -7 -9 14 -9 29 0 35 5 14 13 -8 3 -20 1 -28 -4z"/>
<path d="M1743 3930 c-13 -5 -23 -12 -23 -16 0 -3 8 -3 18 1 9 4 31 11 47 15
27 7 28 8 5 8 -14 1 -35 -3 -47 -8z"/>
<path d="M1538 3893 c-10 -3 -18 -9 -18 -13 0 -5 40 -9 89 -7 50 1 86 6 81 11
-9 9 -123 16 -152 9z"/>
<path d="M1540 3850 c0 -5 14 -10 31 -10 17 0 28 4 24 10 -3 6 -17 10 -31 10
-13 0 -24 -4 -24 -10z"/>
<path d="M1616 3836 c5 -19 1 -25 -22 -30 -22 -6 -25 -9 -13 -17 16 -10 60
-12 83 -3 14 5 12 10 -9 30 -15 13 -23 29 -20 34 3 6 -1 10 -10 10 -11 0 -14
-6 -9 -24z"/>
<path d="M1420 3830 c0 -5 5 -10 10 -10 6 0 10 5 10 10 0 6 -4 10 -10 10 -5 0
-10 -4 -10 -10z"/>
<path d="M1906 3819 c-12 -15 -26 -20 -46 -17 -16 2 -27 0 -24 -4 3 -5 3 -16
0 -24 -4 -11 -9 -12 -24 -3 -14 9 -27 9 -50 1 -17 -6 -40 -8 -51 -5 -12 3 -28
0 -36 -7 -11 -9 -22 -9 -49 1 -27 10 -38 10 -49 0 -12 -9 -16 -9 -20 1 -2 7
-7 10 -11 7 -9 -8 26 -69 39 -68 6 1 20 1 33 0 33 -2 27 -21 -7 -21 -18 0 -31
-6 -35 -16 -9 -25 1 -30 22 -11 10 10 25 17 33 17 9 0 24 9 36 19 15 14 32 18
66 16 32 -2 47 1 51 11 8 20 33 17 49 -6 14 -20 15 -20 19 -2 6 22 74 36 94
20 14 -10 64 7 64 23 0 7 -11 8 -30 4 -34 -8 -136 15 -119 26 7 4 24 3 39 -1
15 -4 34 -4 41 1 8 5 28 9 44 9 42 0 65 16 36 25 -12 3 -19 11 -16 16 4 5 -13
9 -37 9 -32 0 -48 -6 -62 -21z"/>
<path d="M1495 3820 c3 -5 13 -10 21 -10 8 0 14 5 14 10 0 6 -9 10 -21 10 -11
0 -17 -4 -14 -10z"/>
<path d="M3680 3771 c0 -12 5 -21 10 -21 6 0 10 6 10 14 0 8 -4 18 -10 21 -5
3 -10 -3 -10 -14z"/>
<path d="M2037 3764 c-12 -12 -8 -22 12 -29 12 -4 18 -12 14 -21 -3 -7 0 -14
7 -14 18 0 8 64 -10 68 -9 1 -19 0 -23 -4z"/>
<path d="M2400 3760 c0 -4 7 -10 15 -14 8 -3 12 -12 9 -21 -5 -11 1 -15 22
-15 26 1 27 2 12 14 -10 7 -18 18 -18 23 0 6 -9 13 -20 16 -11 3 -20 2 -20 -3z"/>
<path d="M3596 3744 c-4 -9 -4 -19 -1 -22 2 -3 7 3 11 12 4 9 4 19 1 22 -2 3
-7 -3 -11 -12z"/>
<path d="M2160 3740 c0 -5 5 -10 10 -10 6 0 10 5 10 10 0 6 -4 10 -10 10 -5 0
-10 -4 -10 -10z"/>
<path d="M2359 3748 c0 -2 -2 -15 -3 -29 -1 -23 -27 -60 -41 -59 -20 1 -25 -1
-20 -10 8 -13 -17 -50 -35 -51 -8 -1 10 -5 40 -10 30 -5 57 -13 60 -17 3 -5
13 -11 23 -15 16 -6 18 -2 15 33 -2 21 2 39 7 39 6 1 10 -8 10 -19 0 -10 4
-22 8 -26 4 -4 7 11 7 34 0 23 -7 47 -15 56 -8 8 -15 19 -15 25 0 6 -5 11 -11
11 -6 0 -8 9 -4 20 5 14 2 20 -9 20 -9 0 -16 -1 -17 -2z m21 -88 c0 -11 -7
-20 -15 -20 -8 0 -15 9 -15 20 0 11 7 20 15 20 8 0 15 -9 15 -20z"/>
<path d="M1924 3695 l-29 -13 40 1 c27 1 39 -2 38 -10 -2 -7 2 -13 7 -13 6 0
10 5 10 11 0 5 4 8 9 4 5 -3 12 -1 16 5 3 5 5 10 3 10 -2 0 -17 4 -34 9 -20 6
-40 4 -60 -4z"/>
<path d="M2225 3690 c-3 -5 -1 -10 4 -10 6 0 11 5 11 10 0 6 -2 10 -4 10 -3 0
-8 -4 -11 -10z"/>
<path d="M3345 3665 c-5 -2 -23 -7 -40 -11 -27 -7 -25 -8 25 -14 30 -4 56 -6
58 -5 6 4 -34 32 -43 30z"/>
<path d="M3456 3661 c-4 -7 -5 -15 -2 -18 9 -9 19 4 14 18 -4 11 -6 11 -12 0z"/>
<path d="M3500 3659 c0 -6 7 -9 15 -6 8 4 17 2 20 -3 4 -6 13 -10 22 -10 13 0
13 3 3 15 -14 17 -60 20 -60 4z"/>
<path d="M2463 3630 c-6 -14 -13 -34 -15 -45 -2 -11 -10 -19 -16 -17 -19 3
-13 -21 11 -48 35 -40 72 -59 119 -62 39 -3 43 -1 46 21 4 23 3 23 -13 8 -22
-23 -31 -22 -63 11 -33 31 -45 59 -32 67 18 11 10 27 -9 22 -20 -5 -38 19 -19
25 6 2 8 13 6 23 -4 18 -6 18 -15 -5z"/>
<path d="M1810 3620 c0 -5 5 -10 10 -10 6 0 10 5 10 10 0 6 -4 10 -10 10 -5 0
-10 -4 -10 -10z"/>
<path d="M1630 3585 c0 -8 2 -15 4 -15 2 0 6 7 10 15 3 8 1 15 -4 15 -6 0 -10
-7 -10 -15z"/>
<path d="M3250 3571 c0 -13 59 -30 92 -28 39 3 35 10 -12 25 -47 14 -80 16
-80 3z"/>
<path d="M2085 3550 c-3 -5 1 -10 9 -10 9 0 16 5 16 10 0 6 -4 10 -9 10 -6 0
-13 -4 -16 -10z"/>
<path d="M2340 3535 c0 -8 7 -15 16 -15 14 0 14 3 4 15 -7 8 -14 15 -16 15 -2
0 -4 -7 -4 -15z"/>
<path d="M2128 3523 c6 -2 18 -2 25 0 6 3 1 5 -13 5 -14 0 -19 -2 -12 -5z"/>
<path d="M2628 3523 c7 -3 16 -2 19 1 4 3 -2 6 -13 5 -11 0 -14 -3 -6 -6z"/>
<path d="M2120 3501 c0 -14 29 -41 44 -41 23 0 25 11 5 31 -20 20 -49 26 -49
10z"/>
<path d="M2188 3443 c7 -3 16 -2 19 1 4 3 -2 6 -13 5 -11 0 -14 -3 -6 -6z"/>
<path d="M2248 3443 c6 -2 18 -2 25 0 6 3 1 5 -13 5 -14 0 -19 -2 -12 -5z"/>
<path d="M2561 3424 c0 -11 3 -14 6 -6 3 7 2 16 -1 19 -3 4 -6 -2 -5 -13z"/>
<path d="M2190 3410 c0 -5 9 -14 19 -20 25 -13 31 -13 31 0 0 6 -7 10 -15 10
-8 0 -15 5 -15 10 0 6 -4 10 -10 10 -5 0 -10 -4 -10 -10z"/>
<path d="M2620 3410 c0 -5 4 -10 9 -10 6 0 13 5 16 10 3 6 -1 10 -9 10 -9 0
-16 -4 -16 -10z"/>
<path d="M2292 3380 c7 -11 19 -20 26 -20 7 0 10 -4 7 -10 -3 -6 4 -10 17 -10
13 0 19 -4 13 -8 -5 -4 -16 -17 -22 -29 -11 -19 -9 -24 14 -42 14 -12 33 -21
42 -21 34 -1 91 -68 91 -108 0 -20 30 -32 95 -37 31 -3 74 22 75 43 0 14 -16
16 -25 2 -3 -5 -19 -10 -36 -10 -16 0 -29 5 -29 10 0 6 8 10 17 10 10 0 27 10
38 22 l20 22 -30 32 c-16 17 -38 34 -47 37 -10 4 -18 13 -18 22 0 20 -58 45
-105 45 -25 0 -35 4 -35 16 0 26 -42 53 -83 54 -35 0 -36 -1 -25 -20z m88 -99
c0 -5 -9 -7 -20 -4 -11 3 -20 7 -20 9 0 2 9 4 20 4 11 0 20 -4 20 -9z m237
-87 c-3 -3 -12 -4 -19 -1 -8 3 -5 6 6 6 11 1 17 -2 13 -5z m-37 -8 c0 -3 -4
-8 -10 -11 -5 -3 -10 -1 -10 4 0 6 5 11 10 11 6 0 10 -2 10 -4z m-32 -48 c-6
-18 -28 -21 -28 -4 0 9 7 16 16 16 9 0 14 -5 12 -12z"/>
<path d="M2014 3371 c9 -8 24 -11 40 -7 39 10 31 21 -14 21 -34 0 -38 -2 -26
-14z"/>
<path d="M2638 3362 c16 -11 5 -42 -13 -36 -7 3 -16 0 -20 -6 -4 -7 2 -14 14
-17 12 -3 21 -9 21 -14 0 -5 10 -9 22 -9 20 0 20 1 5 18 -21 23 -22 38 -2 46
25 9 17 26 -12 26 -19 0 -24 -3 -15 -8z"/>
<path d="M2700 3355 c0 -8 -4 -15 -10 -15 -15 0 -12 -26 4 -40 20 -16 9 -42
-15 -35 -13 4 -19 1 -19 -9 0 -25 26 -19 57 12 15 16 36 31 46 35 23 9 22 19
-8 45 -29 25 -55 29 -55 7z"/>
<path d="M3010 3340 c-13 -8 -13 -10 2 -10 9 0 20 5 23 10 8 13 -5 13 -25 0z"/>
<path d="M1667 3333 c-12 -11 -8 -23 8 -23 8 0 15 7 15 15 0 16 -12 20 -23 8z"/>
<path d="M2290 3310 c0 -5 7 -10 15 -10 8 0 15 5 15 10 0 6 -7 10 -15 10 -8 0
-15 -4 -15 -10z"/>
<path d="M1745 3280 c3 -5 8 -10 11 -10 2 0 4 5 4 10 0 6 -5 10 -11 10 -5 0
-7 -4 -4 -10z"/>
<path d="M2006 3267 c-17 -12 -16 -14 13 -14 19 0 31 5 31 14 0 7 -6 13 -13
13 -7 0 -21 -6 -31 -13z"/>
<path d="M2120 3262 c0 -14 11 -21 26 -15 21 8 17 23 -6 23 -11 0 -20 -4 -20
-8z"/>
<path d="M1789 3239 c12 -12 25 -19 28 -15 7 7 -23 36 -38 36 -7 0 -3 -9 10
-21z"/>
<path d="M2065 3101 c-3 -5 -1 -12 5 -16 5 -3 10 1 10 9 0 18 -6 21 -15 7z"/>
<path d="M2130 3100 c0 -5 7 -10 15 -10 8 0 15 5 15 10 0 6 -7 10 -15 10 -8 0
-15 -4 -15 -10z"/>
<path d="M2198 3098 c9 -9 15 -9 24 0 9 9 7 12 -12 12 -19 0 -21 -3 -12 -12z"/>
<path d="M1926 3055 c7 -17 54 -21 54 -4 0 6 -9 8 -20 4 -11 -4 -20 -2 -20 4
0 6 -4 11 -10 11 -5 0 -7 -7 -4 -15z"/>
<path d="M2100 3066 c0 -2 9 -6 20 -9 11 -3 20 -1 20 4 0 5 -9 9 -20 9 -11 0
-20 -2 -20 -4z"/>
<path d="M2550 3060 c-12 -7 -12 -12 -2 -22 9 -9 12 -9 12 4 0 9 6 19 13 21 6
3 8 6 2 6 -5 0 -17 -4 -25 -9z"/>
<path d="M2178 3043 c-10 -2 -18 -10 -18 -16 0 -7 -9 -18 -20 -25 -11 -7 -20
-21 -20 -32 0 -27 14 -25 28 3 l11 22 7 -22 c4 -17 14 -23 33 -22 14 0 20 3
14 6 -7 2 -13 13 -13 24 0 10 -4 19 -10 19 -5 0 -10 7 -10 15 0 8 9 15 21 15
11 0 17 5 14 10 -6 10 -9 11 -37 3z"/>
<path d="M1917 3015 c-4 -8 -2 -17 3 -20 6 -4 10 3 10 14 0 25 -6 27 -13 6z"/>
<path d="M2007 3013 c-4 -3 -7 -15 -7 -25 0 -15 8 -18 42 -18 23 0 38 3 34 8
-4 4 -18 7 -29 7 -12 0 -22 5 -22 12 0 15 -10 25 -18 16z"/>
<path d="M2228 3007 c6 -7 11 -31 10 -54 0 -39 -2 -41 -32 -39 -40 1 -44 -28
-3 -32 15 -2 25 -7 22 -12 -3 -5 -1 -11 5 -15 5 -3 10 1 10 9 0 9 4 16 10 16
5 0 7 -6 4 -14 -8 -22 15 -29 40 -13 18 12 22 22 18 53 -2 30 -1 35 7 24 9
-13 11 -12 11 3 0 22 -23 47 -42 47 -8 0 -24 9 -36 20 -24 22 -40 27 -24 7z"/>
<path d="M2010 2940 c0 -5 7 -10 16 -10 8 0 12 5 9 10 -3 6 -10 10 -16 10 -5
0 -9 -4 -9 -10z"/>
<path d="M2125 2890 c-3 -5 3 -10 14 -10 12 0 21 5 21 10 0 6 -6 10 -14 10 -8
0 -18 -4 -21 -10z"/>
<path d="M2105 2691 c-6 -11 9 -23 19 -14 9 9 7 23 -3 23 -6 0 -12 -4 -16 -9z"/>
<path d="M110 2140 c0 -5 5 -10 10 -10 6 0 10 5 10 10 0 6 -4 10 -10 10 -5 0
-10 -4 -10 -10z"/>
<path d="M5 2130 c-6 -9 -6 -320 0 -320 1 0 16 7 31 15 16 8 38 12 49 9 17 -4
18 -3 5 6 -12 9 -10 10 13 6 34 -8 35 6 1 33 -23 18 -24 21 -8 21 11 0 32 -14
49 -31 l29 -32 14 34 c8 19 18 37 23 40 5 3 -5 6 -23 6 -18 1 -55 2 -81 2 -54
2 -92 30 -84 62 3 10 1 19 -4 19 -5 0 -4 10 2 23 7 12 15 29 19 37 4 8 17 16
29 18 11 2 21 8 21 13 0 5 -11 7 -24 3 -37 -9 -51 4 -30 27 16 18 16 19 -4 19
-11 0 -23 -4 -27 -10z"/>
<path d="M160 2120 c0 -5 5 -10 10 -10 6 0 10 5 10 10 0 6 -4 10 -10 10 -5 0
-10 -4 -10 -10z"/>
<path d="M110 2100 c0 -5 5 -10 10 -10 6 0 10 5 10 10 0 6 -4 10 -10 10 -5 0
-10 -4 -10 -10z"/>
<path d="M46 2025 c4 -8 12 -15 20 -15 8 0 14 7 14 15 0 8 -9 15 -20 15 -13 0
-18 -5 -14 -15z"/>
<path d="M150 2030 c0 -5 5 -10 10 -10 6 0 10 5 10 10 0 6 -4 10 -10 10 -5 0
-10 -4 -10 -10z"/>
<path d="M190 2015 c0 -8 -7 -15 -15 -15 -8 0 -15 -4 -15 -10 0 -5 7 -10 15
-10 8 0 15 -6 15 -14 0 -8 5 -18 11 -21 14 -9 99 -12 99 -4 0 9 -27 19 -51 19
-12 0 -24 12 -33 35 -16 37 -26 45 -26 20z"/>
<path d="M175 1810 c3 -5 8 -10 11 -10 2 0 4 5 4 10 0 6 -5 10 -11 10 -5 0 -7
-4 -4 -10z"/>
<path d="M34 1799 c-3 -5 6 -9 20 -9 31 0 34 6 6 13 -11 3 -23 1 -26 -4z"/>
<path d="M310 1790 c0 -5 5 -10 11 -10 5 0 7 5 4 10 -3 6 -8 10 -11 10 -2 0
-4 -4 -4 -10z"/>
<path d="M144 1729 c-3 -6 -1 -16 5 -22 8 -8 11 -5 11 11 0 24 -5 28 -16 11z"/>
<path d="M174 1672 c-6 -4 -14 -16 -17 -26 -6 -16 -5 -17 7 -7 8 7 24 10 34 7
21 -7 71 8 56 16 -18 11 -69 18 -80 10z"/>
<path d="M7985 1670 c3 -5 8 -10 11 -10 2 0 4 5 4 10 0 6 -5 10 -11 10 -5 0
-7 -4 -4 -10z"/>
<path d="M80 1585 c-20 -12 -22 -15 -8 -20 20 -8 61 12 53 26 -8 11 -14 10
-45 -6z"/>
<path d="M145 1590 c-3 -6 1 -13 10 -16 19 -8 30 0 20 15 -8 14 -22 14 -30 1z"/>
<path d="M207 1501 c3 -11 11 -17 18 -14 17 6 8 33 -10 33 -8 0 -11 -8 -8 -19z"/>
<path d="M95 1500 c3 -5 10 -10 16 -10 5 0 9 5 9 10 0 6 -7 10 -16 10 -8 0
-12 -4 -9 -10z"/>
<path d="M160 1490 c0 -5 5 -10 10 -10 6 0 10 5 10 10 0 6 -4 10 -10 10 -5 0
-10 -4 -10 -10z"/>
</g>
</svg>
